<svg width="24" height="24" viewBox="0 0 24 24" fill="none" xmlns="http://www.w3.org/2000/svg">
<path d="M5.505 10.5015C7.34 10.4825 8.3635 10.6675 10.311 11.463L10.689 10.537C8.6255 9.6945 7.47 9.481 5.495 9.5015L5.505 10.5015ZM10.311 13.463C8.3635 12.668 7.34 12.4825 5.505 12.5015L5.495 11.5015C7.47 11.481 8.625 11.6945 10.689 12.537L10.311 13.463ZM5.505 14.5015C7.34 14.4825 8.3635 14.6675 10.311 15.463L10.689 14.537C8.6255 13.6945 7.47 13.481 5.495 13.5015L5.505 14.5015ZM18.495 14.5015C16.66 14.4825 15.6365 14.6675 13.689 15.463L13.311 14.537C15.3745 13.6945 16.53 13.481 18.505 13.5015L18.495 14.5015ZM13.689 13.463C15.6365 12.668 16.6605 12.4825 18.495 12.5015L18.505 11.5015C16.53 11.481 15.375 11.6945 13.311 12.537L13.689 13.463ZM18.495 10.5015C16.66 10.4825 15.6365 10.6675 13.689 11.463L13.311 10.537C15.3745 9.6945 16.53 9.481 18.505 9.5015L18.495 10.5015ZM6.75 8V6.5H5.75V8H6.75ZM8.5 7V8.5H7.5V7H8.5ZM10.25 9V7.5H9.25V9H10.25ZM17.25 8V6.5H18.25V8H17.25ZM15.5 7V8.5H16.5V7H15.5ZM13.75 9V7.5H14.75V9H13.75Z" fill="url(#paint0_radial_1_781)"/>
<path fill-rule="evenodd" clip-rule="evenodd" d="M12 5.61976L12.129 5.59226C14.627 4.38926 16.7795 3.52426 19.763 4.28826C19.9747 4.34334 20.1621 4.46735 20.2956 4.64073C20.429 4.8141 20.5009 5.02697 20.5 5.24576V5.38626C20.8597 5.45859 21.2335 5.54159 21.6215 5.63526C21.7296 5.66144 21.8258 5.7233 21.8945 5.81084C21.9631 5.89838 22.0003 6.0065 22 6.11776V18.8873C22 19.2038 21.7085 19.4398 21.398 19.3808C18.2915 18.7883 16.198 18.7468 13.337 19.1808C13.2115 19.4275 13.0202 19.6347 12.7842 19.7794C12.5482 19.9241 12.2768 20.0007 12 20.0007C11.7232 20.0007 11.4518 19.9241 11.2158 19.7794C10.9798 19.6347 10.7885 19.4275 10.663 19.1808C7.8025 18.7468 5.708 18.7883 2.602 19.3808C2.52902 19.395 2.45379 19.393 2.38168 19.3749C2.30956 19.3567 2.24235 19.3229 2.18484 19.2757C2.12733 19.2286 2.08094 19.1693 2.04899 19.1021C2.01704 19.035 2.00031 18.9616 2 18.8873V6.11776C1.99969 6.0065 2.03686 5.89838 2.10553 5.81084C2.17421 5.7233 2.27037 5.66144 2.3785 5.63526C2.75071 5.54511 3.12461 5.46209 3.5 5.38626V5.24576C3.5 4.80576 3.7915 4.40226 4.237 4.28826C7.2205 3.52426 9.373 4.38926 11.871 5.59226L12 5.61976ZM12.5 6.52326C14.99 5.32126 16.867 4.58326 19.5 5.25326V16.5273C19.5 16.5273 19.4987 16.5293 19.496 16.5313C19.4925 16.5343 19.4883 16.5364 19.4838 16.5376C19.4793 16.5387 19.4745 16.5388 19.47 16.5378C17.02 16.0888 15.1295 16.5563 13.0725 17.4508C12.9121 17.2868 12.7163 17.1617 12.5 17.0853V6.52326ZM11.5 6.52376V17.0853C11.2837 17.1617 11.0879 17.2868 10.9275 17.4508C8.8705 16.5558 6.9795 16.0888 4.53 16.5378C4.52539 16.5388 4.52058 16.5388 4.51597 16.5377C4.51136 16.5366 4.50709 16.5344 4.5035 16.5313H4.503L4.5 16.5268V5.25326C7.133 4.58326 9.01 5.32176 11.5 6.52376ZM21 6.51626C20.83 6.47759 20.6633 6.44126 20.5 6.40726V16.5273C20.5 17.1823 19.895 17.6323 19.2895 17.5218C17.4015 17.1753 15.8895 17.4253 14.253 18.0478C16.5395 17.7813 18.467 17.8468 21 18.2913V6.51626ZM9.747 18.0478C8.111 17.4253 6.5985 17.1753 4.7105 17.5218C4.1055 17.6328 3.5 17.1823 3.5 16.5273V6.40726C3.33667 6.44126 3.17 6.47759 3 6.51626V18.2913C5.533 17.8468 7.46 17.7813 9.747 18.0478Z" fill="url(#paint1_radial_1_781)"/>
<defs>
<radialGradient id="paint0_radial_1_781" cx="0" cy="0" r="1" gradientUnits="userSpaceOnUse" gradientTransform="translate(12 10.9815) scale(6.505 4.4815)">
<stop stop-color="#FF7700"/>
<stop offset="1" stop-color="#251010"/>
</radialGradient>
<radialGradient id="paint1_radial_1_781" cx="0" cy="0" r="1" gradientUnits="userSpaceOnUse" gradientTransform="translate(12 12.0004) scale(10 8.00037)">
<stop stop-color="#FF7700"/>
<stop offset="1" stop-color="#251010"/>
</radialGradient>
</defs>
</svg>
