<svg width="30" height="30" viewBox="0 0 30 30" fill="none" xmlns="http://www.w3.org/2000/svg">
<g clip-path="url(#clip0_1_937)">
<g clip-path="url(#paint0_diamond_1_937_clip_path)" data-figma-skip-parse="true"><g transform="matrix(0.005625 0 0 0.005625 19.375 19.375)"><rect x="0" y="0" width="1355.56" height="1355.56" fill="url(#paint0_diamond_1_937)" opacity="1" shape-rendering="crispEdges"/><rect x="0" y="0" width="1355.56" height="1355.56" transform="scale(1 -1)" fill="url(#paint0_diamond_1_937)" opacity="1" shape-rendering="crispEdges"/><rect x="0" y="0" width="1355.56" height="1355.56" transform="scale(-1 1)" fill="url(#paint0_diamond_1_937)" opacity="1" shape-rendering="crispEdges"/><rect x="0" y="0" width="1355.56" height="1355.56" transform="scale(-1)" fill="url(#paint0_diamond_1_937)" opacity="1" shape-rendering="crispEdges"/></g></g><path d="M19.375 23.125L15.625 25L16.25 20.625L13.75 18.125L17.5 17.5L19.375 13.75L21.25 17.5L25 18.125L22.5 20.625L23.125 25L19.375 23.125Z" data-figma-gradient-fill="{&#34;type&#34;:&#34;GRADIENT_DIAMOND&#34;,&#34;stops&#34;:[{&#34;color&#34;:{&#34;r&#34;:1.0,&#34;g&#34;:0.73333334922790527,&#34;b&#34;:0.0,&#34;a&#34;:1.0},&#34;position&#34;:0.0},{&#34;color&#34;:{&#34;r&#34;:0.46634614467620850,&#34;g&#34;:0.17263776063919067,&#34;b&#34;:0.17263776063919067,&#34;a&#34;:1.0},&#34;position&#34;:1.0}],&#34;stopsVar&#34;:[{&#34;color&#34;:{&#34;r&#34;:1.0,&#34;g&#34;:0.73333334922790527,&#34;b&#34;:0.0,&#34;a&#34;:1.0},&#34;position&#34;:0.0},{&#34;color&#34;:{&#34;r&#34;:0.46634614467620850,&#34;g&#34;:0.17263776063919067,&#34;b&#34;:0.17263776063919067,&#34;a&#34;:1.0},&#34;position&#34;:1.0}],&#34;transform&#34;:{&#34;m00&#34;:11.250,&#34;m01&#34;:0.0,&#34;m02&#34;:13.750,&#34;m10&#34;:0.0,&#34;m11&#34;:11.250,&#34;m12&#34;:13.750},&#34;opacity&#34;:1.0,&#34;blendMode&#34;:&#34;NORMAL&#34;,&#34;visible&#34;:true}"/>
<g clip-path="url(#paint1_diamond_1_937_clip_path)" data-figma-skip-parse="true"><g transform="matrix(0.005625 0 0 0.005625 19.375 19.375)"><rect x="0" y="0" width="1355.56" height="1355.56" fill="url(#paint1_diamond_1_937)" opacity="1" shape-rendering="crispEdges"/><rect x="0" y="0" width="1355.56" height="1355.56" transform="scale(1 -1)" fill="url(#paint1_diamond_1_937)" opacity="1" shape-rendering="crispEdges"/><rect x="0" y="0" width="1355.56" height="1355.56" transform="scale(-1 1)" fill="url(#paint1_diamond_1_937)" opacity="1" shape-rendering="crispEdges"/><rect x="0" y="0" width="1355.56" height="1355.56" transform="scale(-1)" fill="url(#paint1_diamond_1_937)" opacity="1" shape-rendering="crispEdges"/></g></g><path d="M19.375 23.125L19.8222 22.2306C19.5407 22.0898 19.2093 22.0898 18.9278 22.2306L19.375 23.125ZM15.625 25L14.6351 24.8586C14.5824 25.2268 14.7386 25.5938 15.0403 25.8112C15.342 26.0287 15.7395 26.0608 16.0722 25.8944L15.625 25ZM16.25 20.625L17.2399 20.7664C17.2845 20.4548 17.1797 20.1405 16.9571 19.9179L16.25 20.625ZM13.75 18.125L13.5856 17.1386C13.2161 17.2002 12.912 17.4631 12.7977 17.8198C12.6834 18.1765 12.778 18.5672 13.0429 18.8321L13.75 18.125ZM17.5 17.5L17.6644 18.4864C17.98 18.4338 18.2513 18.2334 18.3944 17.9472L17.5 17.5ZM19.375 13.75L20.2694 13.3028C20.1 12.964 19.7538 12.75 19.375 12.75C18.9962 12.75 18.65 12.964 18.4806 13.3028L19.375 13.75ZM21.25 17.5L20.3556 17.9472C20.4987 18.2334 20.77 18.4338 21.0856 18.4864L21.25 17.5ZM25 18.125L25.7071 18.8321C25.972 18.5672 26.0666 18.1765 25.9523 17.8198C25.838 17.4631 25.5339 17.2002 25.1644 17.1386L25 18.125ZM22.5 20.625L21.7929 19.9179C21.5703 20.1405 21.4655 20.4548 21.5101 20.7664L22.5 20.625ZM23.125 25L22.6778 25.8944C23.0105 26.0608 23.408 26.0287 23.7097 25.8112C24.0114 25.5938 24.1676 25.2268 24.1149 24.8586L23.125 25ZM19.375 23.125L18.9278 22.2306L15.1778 24.1056L15.625 25L16.0722 25.8944L19.8222 24.0194L19.375 23.125ZM15.625 25L16.6149 25.1414L17.2399 20.7664L16.25 20.625L15.2601 20.4836L14.6351 24.8586L15.625 25ZM16.25 20.625L16.9571 19.9179L14.4571 17.4179L13.75 18.125L13.0429 18.8321L15.5429 21.3321L16.25 20.625ZM13.75 18.125L13.9144 19.1114L17.6644 18.4864L17.5 17.5L17.3356 16.5136L13.5856 17.1386L13.75 18.125ZM17.5 17.5L18.3944 17.9472L20.2694 14.1972L19.375 13.75L18.4806 13.3028L16.6056 17.0528L17.5 17.5ZM19.375 13.75L18.4806 14.1972L20.3556 17.9472L21.25 17.5L22.1444 17.0528L20.2694 13.3028L19.375 13.75ZM21.25 17.5L21.0856 18.4864L24.8356 19.1114L25 18.125L25.1644 17.1386L21.4144 16.5136L21.25 17.5ZM25 18.125L24.2929 17.4179L21.7929 19.9179L22.5 20.625L23.2071 21.3321L25.7071 18.8321L25 18.125ZM22.5 20.625L21.5101 20.7664L22.1351 25.1414L23.125 25L24.1149 24.8586L23.4899 20.4836L22.5 20.625ZM23.125 25L23.5722 24.1056L19.8222 22.2306L19.375 23.125L18.9278 24.0194L22.6778 25.8944L23.125 25Z" data-figma-gradient-fill="{&#34;type&#34;:&#34;GRADIENT_DIAMOND&#34;,&#34;stops&#34;:[{&#34;color&#34;:{&#34;r&#34;:1.0,&#34;g&#34;:0.73333334922790527,&#34;b&#34;:0.0,&#34;a&#34;:1.0},&#34;position&#34;:0.0},{&#34;color&#34;:{&#34;r&#34;:0.46634614467620850,&#34;g&#34;:0.17263776063919067,&#34;b&#34;:0.17263776063919067,&#34;a&#34;:1.0},&#34;position&#34;:1.0}],&#34;stopsVar&#34;:[{&#34;color&#34;:{&#34;r&#34;:1.0,&#34;g&#34;:0.73333334922790527,&#34;b&#34;:0.0,&#34;a&#34;:1.0},&#34;position&#34;:0.0},{&#34;color&#34;:{&#34;r&#34;:0.46634614467620850,&#34;g&#34;:0.17263776063919067,&#34;b&#34;:0.17263776063919067,&#34;a&#34;:1.0},&#34;position&#34;:1.0}],&#34;transform&#34;:{&#34;m00&#34;:11.250,&#34;m01&#34;:0.0,&#34;m02&#34;:13.750,&#34;m10&#34;:0.0,&#34;m11&#34;:11.250,&#34;m12&#34;:13.750},&#34;opacity&#34;:1.0,&#34;blendMode&#34;:&#34;NORMAL&#34;,&#34;visible&#34;:true}"/>
<path d="M5 5L13.75 13.75" stroke="url(#paint2_linear_1_937)" stroke-width="2" stroke-linecap="round" stroke-linejoin="round"/>
<path d="M11.25 5L15.625 9.375" stroke="url(#paint3_linear_1_937)" stroke-width="2" stroke-linecap="round" stroke-linejoin="round"/>
<path d="M5 11.25L9.375 15.625" stroke="url(#paint4_linear_1_937)" stroke-width="2" stroke-linecap="round" stroke-linejoin="round"/>
</g>
<defs>
<clipPath id="paint0_diamond_1_937_clip_path"><path d="M19.375 23.125L15.625 25L16.25 20.625L13.75 18.125L17.5 17.5L19.375 13.75L21.25 17.5L25 18.125L22.5 20.625L23.125 25L19.375 23.125Z"/></clipPath><clipPath id="paint1_diamond_1_937_clip_path"><path d="M19.375 23.125L19.8222 22.2306C19.5407 22.0898 19.2093 22.0898 18.9278 22.2306L19.375 23.125ZM15.625 25L14.6351 24.8586C14.5824 25.2268 14.7386 25.5938 15.0403 25.8112C15.342 26.0287 15.7395 26.0608 16.0722 25.8944L15.625 25ZM16.25 20.625L17.2399 20.7664C17.2845 20.4548 17.1797 20.1405 16.9571 19.9179L16.25 20.625ZM13.75 18.125L13.5856 17.1386C13.2161 17.2002 12.912 17.4631 12.7977 17.8198C12.6834 18.1765 12.778 18.5672 13.0429 18.8321L13.75 18.125ZM17.5 17.5L17.6644 18.4864C17.98 18.4338 18.2513 18.2334 18.3944 17.9472L17.5 17.5ZM19.375 13.75L20.2694 13.3028C20.1 12.964 19.7538 12.75 19.375 12.75C18.9962 12.75 18.65 12.964 18.4806 13.3028L19.375 13.75ZM21.25 17.5L20.3556 17.9472C20.4987 18.2334 20.77 18.4338 21.0856 18.4864L21.25 17.5ZM25 18.125L25.7071 18.8321C25.972 18.5672 26.0666 18.1765 25.9523 17.8198C25.838 17.4631 25.5339 17.2002 25.1644 17.1386L25 18.125ZM22.5 20.625L21.7929 19.9179C21.5703 20.1405 21.4655 20.4548 21.5101 20.7664L22.5 20.625ZM23.125 25L22.6778 25.8944C23.0105 26.0608 23.408 26.0287 23.7097 25.8112C24.0114 25.5938 24.1676 25.2268 24.1149 24.8586L23.125 25ZM19.375 23.125L18.9278 22.2306L15.1778 24.1056L15.625 25L16.0722 25.8944L19.8222 24.0194L19.375 23.125ZM15.625 25L16.6149 25.1414L17.2399 20.7664L16.25 20.625L15.2601 20.4836L14.6351 24.8586L15.625 25ZM16.25 20.625L16.9571 19.9179L14.4571 17.4179L13.75 18.125L13.0429 18.8321L15.5429 21.3321L16.25 20.625ZM13.75 18.125L13.9144 19.1114L17.6644 18.4864L17.5 17.5L17.3356 16.5136L13.5856 17.1386L13.75 18.125ZM17.5 17.5L18.3944 17.9472L20.2694 14.1972L19.375 13.75L18.4806 13.3028L16.6056 17.0528L17.5 17.5ZM19.375 13.75L18.4806 14.1972L20.3556 17.9472L21.25 17.5L22.1444 17.0528L20.2694 13.3028L19.375 13.75ZM21.25 17.5L21.0856 18.4864L24.8356 19.1114L25 18.125L25.1644 17.1386L21.4144 16.5136L21.25 17.5ZM25 18.125L24.2929 17.4179L21.7929 19.9179L22.5 20.625L23.2071 21.3321L25.7071 18.8321L25 18.125ZM22.5 20.625L21.5101 20.7664L22.1351 25.1414L23.125 25L24.1149 24.8586L23.4899 20.4836L22.5 20.625ZM23.125 25L23.5722 24.1056L19.8222 22.2306L19.375 23.125L18.9278 24.0194L22.6778 25.8944L23.125 25Z"/></clipPath><linearGradient id="paint0_diamond_1_937" x1="0" y1="0" x2="500" y2="500" gradientUnits="userSpaceOnUse">
<stop stop-color="#FFBB00"/>
<stop offset="1" stop-color="#772C2C"/>
</linearGradient>
<linearGradient id="paint1_diamond_1_937" x1="0" y1="0" x2="500" y2="500" gradientUnits="userSpaceOnUse">
<stop stop-color="#FFBB00"/>
<stop offset="1" stop-color="#772C2C"/>
</linearGradient>
<linearGradient id="paint2_linear_1_937" x1="5" y1="9.375" x2="13.75" y2="9.375" gradientUnits="userSpaceOnUse">
<stop stop-color="#A85812"/>
<stop offset="1" stop-color="#FFBD00"/>
</linearGradient>
<linearGradient id="paint3_linear_1_937" x1="11.25" y1="7.1875" x2="15.625" y2="7.1875" gradientUnits="userSpaceOnUse">
<stop stop-color="#A85812"/>
<stop offset="1" stop-color="#FFBD00"/>
</linearGradient>
<linearGradient id="paint4_linear_1_937" x1="5" y1="13.4375" x2="9.375" y2="13.4375" gradientUnits="userSpaceOnUse">
<stop stop-color="#A85812"/>
<stop offset="1" stop-color="#FFBD00"/>
</linearGradient>
<clipPath id="clip0_1_937">
<rect width="30" height="30" fill="white"/>
</clipPath>
</defs>
</svg>
