<svg width="30" height="30" viewBox="0 0 30 30" fill="none" xmlns="http://www.w3.org/2000/svg">
<rect width="30" height="30" rx="15" fill="#1E1E1E"/>
<path d="M20.8093 20.9991C20.0931 21.991 19.3338 22.9589 18.1776 22.9749C17.0214 22.9989 16.6504 22.343 15.3389 22.343C14.0188 22.343 13.6132 22.9589 12.5174 22.9989C11.3871 23.0389 10.5329 21.943 9.80815 20.9751C8.3327 18.9992 7.20239 15.3594 8.72098 12.9116C9.47164 11.6957 10.8177 10.9277 12.2759 10.9037C13.3803 10.8877 14.4329 11.5997 15.1146 11.5997C15.7876 11.5997 17.0646 10.7438 18.402 10.8717C18.9628 10.8957 20.5332 11.0797 21.5427 12.4556C21.465 12.5036 19.6703 13.4796 19.6876 15.5034C19.7135 17.9193 21.9741 18.7272 22 18.7352C21.9741 18.7912 21.6376 19.8871 20.8093 20.9991ZM15.8825 8.19992C16.5124 7.53596 17.5564 7.032 18.4192 7C18.5314 7.93594 18.1259 8.87988 17.5219 9.55183C16.9265 10.2318 15.9429 10.7598 14.9765 10.6878C14.8471 9.76782 15.3303 8.80788 15.8825 8.19992Z" fill="white"/>
</svg>
