<svg width="16" height="16" viewBox="0 0 16 16" fill="none" xmlns="http://www.w3.org/2000/svg">
<path fill-rule="evenodd" clip-rule="evenodd" d="M14 7.39871V10.7274C14 12.7914 14 13.824 13.5107 14.2747C13.2773 14.49 12.9827 14.6254 12.6687 14.6614C12.0107 14.7367 11.242 14.0567 9.70533 12.6974C9.02533 12.0967 8.686 11.796 8.29333 11.7174C8.09977 11.6779 7.90023 11.6779 7.70667 11.7174C7.31333 11.796 6.974 12.0967 6.29467 12.6974C4.758 14.0567 3.98933 14.7367 3.33133 14.6607C3.01685 14.6245 2.72199 14.4894 2.48933 14.2747C2 13.824 2 12.792 2 10.7274V7.39804C2 4.54004 2 3.11071 2.87867 2.22204C3.75733 1.33337 5.172 1.33337 8 1.33337C10.828 1.33337 12.2427 1.33337 13.1213 2.22137C14 3.10937 14 4.54004 14 7.39871ZM5.5 4.00004C5.5 3.86743 5.55268 3.74026 5.64645 3.64649C5.74022 3.55272 5.86739 3.50004 6 3.50004H10C10.1326 3.50004 10.2598 3.55272 10.3536 3.64649C10.4473 3.74026 10.5 3.86743 10.5 4.00004C10.5 4.13265 10.4473 4.25983 10.3536 4.35359C10.2598 4.44736 10.1326 4.50004 10 4.50004H6C5.86739 4.50004 5.74022 4.44736 5.64645 4.35359C5.55268 4.25983 5.5 4.13265 5.5 4.00004Z" fill="#C39D4C"/>
</svg>
