<svg width="16" height="16" viewBox="0 0 16 16" fill="none" xmlns="http://www.w3.org/2000/svg">
<path d="M14 10.7267V7.39871C14 4.53871 14 3.11004 13.1213 2.22137C12.2427 1.33337 10.828 1.33337 8 1.33337C5.172 1.33337 3.75733 1.33337 2.87867 2.22137C2 3.10937 2 4.54004 2 7.39871V10.7274C2 12.7914 2 13.824 2.48933 14.2747C2.72267 14.49 3.01733 14.6254 3.33133 14.6614C3.98933 14.7367 4.758 14.0567 6.29467 12.6974C6.97467 12.0967 7.314 11.796 7.70667 11.7174C7.9 11.6774 8.1 11.6774 8.29333 11.7174C8.68667 11.796 9.026 12.0967 9.70533 12.6974C11.242 14.0567 12.0107 14.7367 12.6687 14.6607C12.982 14.6254 13.2773 14.49 13.5107 14.2747C14 13.824 14 12.7914 14 10.7267Z" stroke="#C39D4C" stroke-width="1.5"/>
<path opacity="0.5" d="M10 4H6" stroke="#C39D4C" stroke-width="1.5" stroke-linecap="round"/>
</svg>
