<svg width="24" height="24" viewBox="0 0 24 24" fill="none" xmlns="http://www.w3.org/2000/svg">
<g clip-path="url(#clip0_1_3363)">
<path d="M8.48189 0.650272C6.08392 1.48215 4.01591 3.06108 2.58162 5.15515C1.14734 7.24922 0.422375 9.74804 0.513221 12.2846C0.604066 14.8211 1.50593 17.2617 3.08635 19.2478C4.66676 21.2339 6.84243 22.6608 9.29377 23.319C11.2811 23.8318 13.3633 23.8543 15.3613 23.3846C17.1712 22.9781 18.8446 22.1085 20.2175 20.8609C21.6464 19.5228 22.6836 17.8205 23.2175 15.9371C23.7979 13.889 23.9011 11.7351 23.5194 9.6409H12.3594V14.2703H18.8225C18.6933 15.0086 18.4165 15.7133 18.0087 16.3422C17.6008 16.9711 17.0703 17.5112 16.4488 17.9303C15.6595 18.4523 14.7699 18.8036 13.8369 18.9615C12.9012 19.1355 11.9414 19.1355 11.0056 18.9615C10.0572 18.7654 9.16008 18.374 8.37127 17.8121C7.10404 16.9151 6.15253 15.6408 5.65252 14.1709C5.14404 12.6735 5.14404 11.0502 5.65252 9.55277C6.00844 8.50318 6.59683 7.54753 7.37377 6.75715C8.26288 5.83605 9.38851 5.17764 10.6272 4.85417C11.8659 4.53069 13.1697 4.55464 14.3956 4.9234C15.3533 5.21738 16.2291 5.73103 16.9531 6.4234C17.6819 5.6984 18.4094 4.97152 19.1356 4.24277C19.5106 3.8509 19.9194 3.47777 20.2888 3.07652C19.1836 2.04804 17.8863 1.24775 16.4713 0.721522C13.8945 -0.214122 11.075 -0.239266 8.48189 0.650272Z" fill="white"/>
<path d="M8.4818 0.650207C11.0747 -0.239936 13.8942 -0.215454 16.4712 0.719582C17.8864 1.24939 19.1831 2.05353 20.2868 3.08583C19.9118 3.48708 19.5162 3.86208 19.1337 4.25208C18.4062 4.97833 17.6793 5.70208 16.953 6.42333C16.229 5.73096 15.3532 5.21732 14.3955 4.92333C13.17 4.55328 11.8662 4.52795 10.6272 4.8501C9.38821 5.17225 8.26188 5.82945 7.3718 6.74958C6.59486 7.53996 6.00647 8.49561 5.65055 9.54521L1.76367 6.53583C3.15494 3.77688 5.56383 1.6665 8.4818 0.650207Z" fill="#E33629"/>
<path d="M0.732495 9.51714C0.94141 8.48175 1.28825 7.47906 1.76374 6.53589L5.65062 9.55276C5.14215 11.0502 5.14215 12.6735 5.65062 14.1709C4.35562 15.1709 3.05999 16.1759 1.76374 17.1859C0.573402 14.8165 0.210368 12.1168 0.732495 9.51714Z" fill="#F8BD00"/>
<path d="M12.3594 9.63892H23.5194C23.9011 11.7332 23.7978 13.887 23.2175 15.9352C22.6835 17.8186 21.6464 19.5208 20.2175 20.8589C18.9631 19.8802 17.7031 18.9089 16.4487 17.9302C17.0706 17.5107 17.6014 16.97 18.0093 16.3404C18.4172 15.7109 18.6938 15.0054 18.8225 14.2664H12.3594C12.3575 12.7252 12.3594 11.182 12.3594 9.63892Z" fill="#587DBD"/>
<path d="M1.76184 17.1859C3.05809 16.1859 4.35372 15.1809 5.64872 14.1709C6.14973 15.6413 7.1026 16.9157 8.37122 17.8121C9.16248 18.3714 10.0616 18.7596 11.0112 18.9521C11.9469 19.1261 12.9067 19.1261 13.8425 18.9521C14.7755 18.7942 15.6651 18.443 16.4543 17.9209C17.7087 18.8996 18.9687 19.8709 20.2231 20.8496C18.8504 22.0979 17.177 22.9682 15.3668 23.3753C13.3689 23.845 11.2867 23.8225 9.29934 23.3096C7.72753 22.89 6.25936 22.1501 4.98684 21.1365C3.63996 20.0672 2.53988 18.7196 1.76184 17.1859Z" fill="#319F43"/>
</g>
<defs>
<clipPath id="clip0_1_3363">
<rect width="24" height="24" fill="white"/>
</clipPath>
</defs>
</svg>
