<svg width="24" height="24" viewBox="0 0 24 24" fill="none" xmlns="http://www.w3.org/2000/svg">
<path d="M12 16.25V21.25" stroke="#4F4F4F" stroke-width="2" stroke-linecap="round"/>
<path d="M5.98 4.03507C4.288 3.71307 3.442 3.55207 2.72 4.17007C2 4.78707 2 5.79007 2 7.79607V15.0051C2 16.8391 2 17.7561 2.463 18.3291C2.925 18.9011 3.943 19.0951 5.981 19.4831C7.796 19.8291 9.213 20.3791 10.239 20.9331C11.249 21.4781 11.753 21.7501 12 21.7501C12.247 21.7501 12.752 21.4781 13.76 20.9331C14.787 20.3801 16.204 19.8291 18.02 19.4831C20.056 19.0951 21.075 18.9011 21.537 18.3291C22 17.7561 22 16.8391 22 15.0051V7.79607C22 5.79007 22 4.78707 21.28 4.17007C20.558 3.55207 19.712 3.71307 18.02 4.03507" stroke="#4F4F4F" stroke-width="2" stroke-linecap="round" stroke-linejoin="round"/>
<path d="M11.25 11.75C11.25 11.5511 11.171 11.3603 11.0303 11.2197C10.8897 11.079 10.6989 11 10.5 11C10.3011 11 10.1103 11.079 9.96967 11.2197C9.82902 11.3603 9.75 11.5511 9.75 11.75H11.25ZM9.75 13.75C9.75 13.9489 9.82902 14.1397 9.96967 14.2803C10.1103 14.421 10.3011 14.5 10.5 14.5C10.6989 14.5 10.8897 14.421 11.0303 14.2803C11.171 14.1397 11.25 13.9489 11.25 13.75H9.75ZM14.25 11.75C14.25 11.5511 14.171 11.3603 14.0303 11.2197C13.8897 11.079 13.6989 11 13.5 11C13.3011 11 13.1103 11.079 12.9697 11.2197C12.829 11.3603 12.75 11.5511 12.75 11.75H14.25ZM12.75 13.75C12.75 13.9489 12.829 14.1397 12.9697 14.2803C13.1103 14.421 13.3011 14.5 13.5 14.5C13.6989 14.5 13.8897 14.421 14.0303 14.2803C14.171 14.1397 14.25 13.9489 14.25 13.75H12.75ZM11.25 3.75C11.25 3.55109 11.171 3.36032 11.0303 3.21967C10.8897 3.07902 10.6989 3 10.5 3C10.3011 3 10.1103 3.07902 9.96967 3.21967C9.82902 3.36032 9.75 3.55109 9.75 3.75H11.25ZM9.75 5.75C9.75 5.94891 9.82902 6.13968 9.96967 6.28033C10.1103 6.42098 10.3011 6.5 10.5 6.5C10.6989 6.5 10.8897 6.42098 11.0303 6.28033C11.171 6.13968 11.25 5.94891 11.25 5.75H9.75ZM14.25 3.75C14.25 3.55109 14.171 3.36032 14.0303 3.21967C13.8897 3.07902 13.6989 3 13.5 3C13.3011 3 13.1103 3.07902 12.9697 3.21967C12.829 3.36032 12.75 3.55109 12.75 3.75H14.25ZM12.75 5.75C12.75 5.94891 12.829 6.13968 12.9697 6.28033C13.1103 6.42098 13.3011 6.5 13.5 6.5C13.6989 6.5 13.8897 6.42098 14.0303 6.28033C14.171 6.13968 14.25 5.94891 14.25 5.75H12.75ZM9 8C9.19891 8 9.38968 7.92098 9.53033 7.78033C9.67098 7.63968 9.75 7.44891 9.75 7.25C9.75 7.05109 9.67098 6.86032 9.53033 6.71967C9.38968 6.57902 9.19891 6.5 9 6.5V8ZM7 6.5C6.80109 6.5 6.61032 6.57902 6.46967 6.71967C6.32902 6.86032 6.25 7.05109 6.25 7.25C6.25 7.44891 6.32902 7.63968 6.46967 7.78033C6.61032 7.92098 6.80109 8 7 8V6.5ZM9 11C9.19891 11 9.38968 10.921 9.53033 10.7803C9.67098 10.6397 9.75 10.4489 9.75 10.25C9.75 10.0511 9.67098 9.86032 9.53033 9.71967C9.38968 9.57902 9.19891 9.5 9 9.5V11ZM7 9.5C6.80109 9.5 6.61032 9.57902 6.46967 9.71967C6.32902 9.86032 6.25 10.0511 6.25 10.25C6.25 10.4489 6.32902 10.6397 6.46967 10.7803C6.61032 10.921 6.80109 11 7 11V9.5ZM17 8C17.1989 8 17.3897 7.92098 17.5303 7.78033C17.671 7.63968 17.75 7.44891 17.75 7.25C17.75 7.05109 17.671 6.86032 17.5303 6.71967C17.3897 6.57902 17.1989 6.5 17 6.5V8ZM15 6.5C14.8011 6.5 14.6103 6.57902 14.4697 6.71967C14.329 6.86032 14.25 7.05109 14.25 7.25C14.25 7.44891 14.329 7.63968 14.4697 7.78033C14.6103 7.92098 14.8011 8 15 8V6.5ZM17 11C17.1989 11 17.3897 10.921 17.5303 10.7803C17.671 10.6397 17.75 10.4489 17.75 10.25C17.75 10.0511 17.671 9.86032 17.5303 9.71967C17.3897 9.57902 17.1989 9.5 17 9.5V11ZM15 9.5C14.8011 9.5 14.6103 9.57902 14.4697 9.71967C14.329 9.86032 14.25 10.0511 14.25 10.25C14.25 10.4489 14.329 10.6397 14.4697 10.7803C14.6103 10.921 14.8011 11 15 11V9.5ZM11 6.5H13V5H11V6.5ZM14.25 7.75V9.75H15.75V7.75H14.25ZM13 11H11V12.5H13V11ZM9.75 9.75V7.75H8.25V9.75H9.75ZM11 11C10.507 11 10.213 10.998 10.003 10.97C9.94136 10.9637 9.88083 10.9492 9.823 10.927L8.763 11.987C9.072 12.297 9.447 12.409 9.803 12.457C10.137 12.502 10.55 12.5 11 12.5V11ZM8.25 9.75C8.25 10.2 8.248 10.613 8.293 10.947C8.341 11.303 8.453 11.678 8.763 11.987L9.823 10.927L9.822 10.924L9.817 10.914C9.79789 10.8601 9.78546 10.804 9.78 10.747C9.752 10.537 9.75 10.243 9.75 9.75H8.25ZM14.25 9.75C14.25 10.243 14.248 10.537 14.22 10.747C14.2137 10.8086 14.1992 10.8692 14.177 10.927L15.237 11.987C15.547 11.678 15.659 11.303 15.707 10.947C15.752 10.613 15.75 10.2 15.75 9.75H14.25ZM13 12.5C13.45 12.5 13.863 12.502 14.197 12.457C14.553 12.409 14.928 12.297 15.237 11.987L14.177 10.927L14.174 10.928L14.164 10.933C14.1101 10.9521 14.054 10.9645 13.997 10.97C13.787 10.998 13.493 11 13 11V12.5ZM13 6.5C13.493 6.5 13.787 6.502 13.997 6.53C14.0576 6.53624 14.1171 6.55036 14.174 6.572L14.177 6.573L15.237 5.513C14.928 5.203 14.553 5.091 14.197 5.043C13.863 4.998 13.45 5 13 5V6.5ZM15.75 7.75C15.75 7.3 15.752 6.887 15.707 6.553C15.659 6.197 15.547 5.822 15.237 5.513L14.177 6.573L14.178 6.576L14.183 6.586C14.192 6.608 14.207 6.656 14.22 6.753C14.248 6.963 14.25 7.257 14.25 7.75H15.75ZM11 5C10.55 5 10.137 4.998 9.803 5.043C9.447 5.091 9.072 5.203 8.763 5.513L9.823 6.573L9.826 6.572L9.836 6.567C9.88995 6.54789 9.94603 6.53546 10.003 6.53C10.213 6.502 10.507 6.5 11 6.5V5ZM9.75 7.75C9.75 7.257 9.752 6.963 9.78 6.753C9.7863 6.69136 9.80076 6.63083 9.823 6.573L8.763 5.513C8.453 5.822 8.341 6.197 8.293 6.553C8.248 6.887 8.25 7.3 8.25 7.75H9.75ZM9.75 11.75V13.75H11.25V11.75H9.75ZM12.75 11.75V13.75H14.25V11.75H12.75ZM9.75 3.75V5.75H11.25V3.75H9.75ZM12.75 3.75V5.75H14.25V3.75H12.75ZM9 6.5H7V8H9V6.5ZM9 9.5H7V11H9V9.5ZM17 6.5H15V8H17V6.5ZM17 9.5H15V11H17V9.5Z" fill="#4F4F4F"/>
</svg>
