<svg width="24" height="24" viewBox="0 0 24 24" fill="none" xmlns="http://www.w3.org/2000/svg">
<g clip-path="url(#paint0_diamond_1_1954_clip_path)" data-figma-skip-parse="true"><g transform="matrix(0.0005 0 0 0.0025 12.5 18.75)"><rect x="0" y="0" width="inf" height="0" fill="url(#paint0_diamond_1_1954)" opacity="1" shape-rendering="crispEdges"/><rect x="0" y="0" width="inf" height="0" transform="scale(1 -1)" fill="url(#paint0_diamond_1_1954)" opacity="1" shape-rendering="crispEdges"/><rect x="0" y="0" width="inf" height="0" transform="scale(-1 1)" fill="url(#paint0_diamond_1_1954)" opacity="1" shape-rendering="crispEdges"/><rect x="0" y="0" width="inf" height="0" transform="scale(-1)" fill="url(#paint0_diamond_1_1954)" opacity="1" shape-rendering="crispEdges"/></g></g><path d="M13 16.25C13 15.6977 12.5523 15.25 12 15.25C11.4477 15.25 11 15.6977 11 16.25H12H13ZM11 21.25C11 21.8023 11.4477 22.25 12 22.25C12.5523 22.25 13 21.8023 13 21.25H12H11ZM12 16.25H11V21.25H12H13V16.25H12Z" data-figma-gradient-fill="{&#34;type&#34;:&#34;GRADIENT_DIAMOND&#34;,&#34;stops&#34;:[{&#34;color&#34;:{&#34;r&#34;:1.0,&#34;g&#34;:0.73333334922790527,&#34;b&#34;:0.0,&#34;a&#34;:1.0},&#34;position&#34;:0.0},{&#34;color&#34;:{&#34;r&#34;:0.46634614467620850,&#34;g&#34;:0.17263776063919067,&#34;b&#34;:0.17263776063919067,&#34;a&#34;:1.0},&#34;position&#34;:1.0}],&#34;stopsVar&#34;:[{&#34;color&#34;:{&#34;r&#34;:1.0,&#34;g&#34;:0.73333334922790527,&#34;b&#34;:0.0,&#34;a&#34;:1.0},&#34;position&#34;:0.0},{&#34;color&#34;:{&#34;r&#34;:0.46634614467620850,&#34;g&#34;:0.17263776063919067,&#34;b&#34;:0.17263776063919067,&#34;a&#34;:1.0},&#34;position&#34;:1.0}],&#34;transform&#34;:{&#34;m00&#34;:1.0,&#34;m01&#34;:0.0,&#34;m02&#34;:12.0,&#34;m10&#34;:0.0,&#34;m11&#34;:5.0,&#34;m12&#34;:16.250},&#34;opacity&#34;:1.0,&#34;blendMode&#34;:&#34;NORMAL&#34;,&#34;visible&#34;:true}"/>
<g clip-path="url(#paint1_diamond_1_1954_clip_path)" data-figma-skip-parse="true"><g transform="matrix(0.01 0 0 0.00900003 12 12.75)"><rect x="0" y="0" width="1200" height="1222.22" fill="url(#paint1_diamond_1_1954)" opacity="1" shape-rendering="crispEdges"/><rect x="0" y="0" width="1200" height="1222.22" transform="scale(1 -1)" fill="url(#paint1_diamond_1_1954)" opacity="1" shape-rendering="crispEdges"/><rect x="0" y="0" width="1200" height="1222.22" transform="scale(-1 1)" fill="url(#paint1_diamond_1_1954)" opacity="1" shape-rendering="crispEdges"/><rect x="0" y="0" width="1200" height="1222.22" transform="scale(-1)" fill="url(#paint1_diamond_1_1954)" opacity="1" shape-rendering="crispEdges"/></g></g><path d="M5.79305 5.01744C6.3356 5.12069 6.85912 4.76457 6.96237 4.22202C7.06562 3.67947 6.7095 3.15595 6.16695 3.0527L5.98 4.03507L5.79305 5.01744ZM2.72 4.17007L2.06973 3.41036L2.0693 3.41074L2.72 4.17007ZM2.463 18.3291L3.24094 17.7007L3.24081 17.7006L2.463 18.3291ZM5.981 19.4831L6.16826 18.5008L6.16802 18.5007L5.981 19.4831ZM10.239 20.9331L9.76388 21.813L9.76412 21.8131L10.239 20.9331ZM13.76 20.9331L13.2859 20.0526L13.2844 20.0534L13.76 20.9331ZM18.02 19.4831L18.2072 20.4654L18.2072 20.4654L18.02 19.4831ZM21.537 18.3291L20.7592 17.7006L20.7591 17.7007L21.537 18.3291ZM21.28 4.17007L21.9307 3.41074L21.9303 3.41037L21.28 4.17007ZM17.833 3.0527C17.2905 3.15595 16.9344 3.67947 17.0376 4.22202C17.1409 4.76457 17.6644 5.12069 18.207 5.01744L18.02 4.03507L17.833 3.0527ZM5.98 4.03507L6.16695 3.0527C5.3576 2.89867 4.61834 2.75405 3.99258 2.75009C3.29727 2.74568 2.65363 2.91057 2.06973 3.41037L2.72 4.17007L3.37027 4.92977C3.50837 4.81156 3.64873 4.74795 3.97992 4.75005C4.38066 4.75258 4.9104 4.84946 5.79305 5.01744L5.98 4.03507ZM2.72 4.17007L2.0693 3.41074C1.46605 3.92768 1.21361 4.59017 1.10188 5.3085C0.997173 5.98169 1 6.82569 1 7.79607H2H3C3 6.76044 3.00283 6.09995 3.07812 5.61589C3.14639 5.17696 3.25395 5.02945 3.3707 4.9294L2.72 4.17007ZM2 7.79607H1V15.0051H2H3V7.79607H2ZM2 15.0051H1C1 15.899 0.998592 16.6513 1.06378 17.2485C1.13023 17.8571 1.278 18.4536 1.68519 18.9576L2.463 18.3291L3.24081 17.7006C3.185 17.6315 3.10127 17.4831 3.05197 17.0314C3.00141 16.5683 3 15.9451 3 15.0051H2ZM2.463 18.3291L1.68506 18.9574C2.11156 19.4854 2.72543 19.7492 3.34613 19.9336C3.97311 20.12 4.7965 20.2755 5.79398 20.4654L5.981 19.4831L6.16802 18.5007C5.1275 18.3026 4.42289 18.1672 3.91587 18.0165C3.40257 17.864 3.27644 17.7447 3.24094 17.7007L2.463 18.3291ZM5.981 19.4831L5.79374 20.4654C7.51199 20.7929 8.83144 21.3095 9.76388 21.813L10.239 20.9331L10.7141 20.0531C9.59456 19.4486 8.08001 18.8652 6.16826 18.5008L5.981 19.4831ZM10.239 20.9331L9.76412 21.8131C10.2596 22.0805 10.663 22.2984 10.9723 22.4472C11.1281 22.5221 11.2846 22.5915 11.4341 22.6435C11.5721 22.6916 11.7735 22.7501 12 22.7501V21.7501V20.7501C12.103 20.7501 12.1487 20.7746 12.0913 20.7546C12.0452 20.7386 11.9663 20.7059 11.8389 20.6447C11.582 20.5212 11.2284 20.3306 10.7139 20.053L10.239 20.9331ZM12 21.7501V22.7501C12.2264 22.7501 12.4278 22.6916 12.5659 22.6436C12.7155 22.5916 12.872 22.5222 13.0279 22.4472C13.3376 22.2983 13.7407 22.0803 14.2356 21.8127L13.76 20.9331L13.2844 20.0534C12.7713 20.3308 12.4179 20.5214 12.1613 20.6447C12.0341 20.7058 11.9551 20.7385 11.909 20.7545C11.8515 20.7745 11.8971 20.7501 12 20.7501V21.7501ZM13.76 20.9331L14.2341 21.8135C15.1686 21.3104 16.4885 20.7929 18.2072 20.4654L18.02 19.4831L17.8328 18.5007C15.9195 18.8653 14.4054 19.4498 13.2859 20.0526L13.76 20.9331ZM18.02 19.4831L18.2072 20.4654C19.2036 20.2755 20.0267 20.1199 20.6536 19.9336C21.2741 19.7492 21.8884 19.4856 22.3149 18.9574L21.537 18.3291L20.7591 17.7007C20.7236 17.7446 20.5974 17.8639 20.0839 18.0165C19.5768 18.1672 18.8724 18.3026 17.8328 18.5007L18.02 19.4831ZM21.537 18.3291L22.3148 18.9576C22.722 18.4536 22.8698 17.8571 22.9362 17.2485C23.0014 16.6513 23 15.899 23 15.0051H22H21C21 15.9451 20.9986 16.5683 20.948 17.0314C20.8987 17.4831 20.815 17.6315 20.7592 17.7006L21.537 18.3291ZM22 15.0051H23V7.79607H22H21V15.0051H22ZM22 7.79607H23C23 6.82569 23.0028 5.98169 22.8981 5.3085C22.7864 4.59017 22.5339 3.92768 21.9307 3.41074L21.28 4.17007L20.6293 4.9294C20.7461 5.02945 20.8536 5.17696 20.9219 5.61589C20.9972 6.09995 21 6.76044 21 7.79607H22ZM21.28 4.17007L21.9303 3.41037C21.3464 2.91057 20.7027 2.74568 20.0074 2.75009C19.3817 2.75405 18.6424 2.89867 17.833 3.0527L18.02 4.03507L18.207 5.01744C19.0896 4.84946 19.6193 4.75258 20.0201 4.75005C20.3513 4.74795 20.4916 4.81156 20.6297 4.92977L21.28 4.17007Z" data-figma-gradient-fill="{&#34;type&#34;:&#34;GRADIENT_DIAMOND&#34;,&#34;stops&#34;:[{&#34;color&#34;:{&#34;r&#34;:1.0,&#34;g&#34;:0.73333334922790527,&#34;b&#34;:0.0,&#34;a&#34;:1.0},&#34;position&#34;:0.0},{&#34;color&#34;:{&#34;r&#34;:0.46634614467620850,&#34;g&#34;:0.17263776063919067,&#34;b&#34;:0.17263776063919067,&#34;a&#34;:1.0},&#34;position&#34;:1.0}],&#34;stopsVar&#34;:[{&#34;color&#34;:{&#34;r&#34;:1.0,&#34;g&#34;:0.73333334922790527,&#34;b&#34;:0.0,&#34;a&#34;:1.0},&#34;position&#34;:0.0},{&#34;color&#34;:{&#34;r&#34;:0.46634614467620850,&#34;g&#34;:0.17263776063919067,&#34;b&#34;:0.17263776063919067,&#34;a&#34;:1.0},&#34;position&#34;:1.0}],&#34;transform&#34;:{&#34;m00&#34;:20.0,&#34;m01&#34;:0.0,&#34;m02&#34;:2.0,&#34;m10&#34;:0.0,&#34;m11&#34;:18.000066757202148,&#34;m12&#34;:3.750},&#34;opacity&#34;:1.0,&#34;blendMode&#34;:&#34;NORMAL&#34;,&#34;visible&#34;:true}"/>
<g clip-path="url(#paint2_diamond_1_1954_clip_path)" data-figma-skip-parse="true"><g transform="matrix(0.00575 0 0 0.00575 12 8.75)"><rect x="0" y="0" width="1347.83" height="1347.83" fill="url(#paint2_diamond_1_1954)" opacity="1" shape-rendering="crispEdges"/><rect x="0" y="0" width="1347.83" height="1347.83" transform="scale(1 -1)" fill="url(#paint2_diamond_1_1954)" opacity="1" shape-rendering="crispEdges"/><rect x="0" y="0" width="1347.83" height="1347.83" transform="scale(-1 1)" fill="url(#paint2_diamond_1_1954)" opacity="1" shape-rendering="crispEdges"/><rect x="0" y="0" width="1347.83" height="1347.83" transform="scale(-1)" fill="url(#paint2_diamond_1_1954)" opacity="1" shape-rendering="crispEdges"/></g></g><path d="M11.25 11.75C11.25 11.5511 11.171 11.3603 11.0303 11.2197C10.8897 11.079 10.6989 11 10.5 11C10.3011 11 10.1103 11.079 9.96967 11.2197C9.82902 11.3603 9.75 11.5511 9.75 11.75H11.25ZM9.75 13.75C9.75 13.9489 9.82902 14.1397 9.96967 14.2803C10.1103 14.421 10.3011 14.5 10.5 14.5C10.6989 14.5 10.8897 14.421 11.0303 14.2803C11.171 14.1397 11.25 13.9489 11.25 13.75H9.75ZM14.25 11.75C14.25 11.5511 14.171 11.3603 14.0303 11.2197C13.8897 11.079 13.6989 11 13.5 11C13.3011 11 13.1103 11.079 12.9697 11.2197C12.829 11.3603 12.75 11.5511 12.75 11.75H14.25ZM12.75 13.75C12.75 13.9489 12.829 14.1397 12.9697 14.2803C13.1103 14.421 13.3011 14.5 13.5 14.5C13.6989 14.5 13.8897 14.421 14.0303 14.2803C14.171 14.1397 14.25 13.9489 14.25 13.75H12.75ZM11.25 3.75C11.25 3.55109 11.171 3.36032 11.0303 3.21967C10.8897 3.07902 10.6989 3 10.5 3C10.3011 3 10.1103 3.07902 9.96967 3.21967C9.82902 3.36032 9.75 3.55109 9.75 3.75H11.25ZM9.75 5.75C9.75 5.94891 9.82902 6.13968 9.96967 6.28033C10.1103 6.42098 10.3011 6.5 10.5 6.5C10.6989 6.5 10.8897 6.42098 11.0303 6.28033C11.171 6.13968 11.25 5.94891 11.25 5.75H9.75ZM14.25 3.75C14.25 3.55109 14.171 3.36032 14.0303 3.21967C13.8897 3.07902 13.6989 3 13.5 3C13.3011 3 13.1103 3.07902 12.9697 3.21967C12.829 3.36032 12.75 3.55109 12.75 3.75H14.25ZM12.75 5.75C12.75 5.94891 12.829 6.13968 12.9697 6.28033C13.1103 6.42098 13.3011 6.5 13.5 6.5C13.6989 6.5 13.8897 6.42098 14.0303 6.28033C14.171 6.13968 14.25 5.94891 14.25 5.75H12.75ZM9 8C9.19891 8 9.38968 7.92098 9.53033 7.78033C9.67098 7.63968 9.75 7.44891 9.75 7.25C9.75 7.05109 9.67098 6.86032 9.53033 6.71967C9.38968 6.57902 9.19891 6.5 9 6.5V8ZM7 6.5C6.80109 6.5 6.61032 6.57902 6.46967 6.71967C6.32902 6.86032 6.25 7.05109 6.25 7.25C6.25 7.44891 6.32902 7.63968 6.46967 7.78033C6.61032 7.92098 6.80109 8 7 8V6.5ZM9 11C9.19891 11 9.38968 10.921 9.53033 10.7803C9.67098 10.6397 9.75 10.4489 9.75 10.25C9.75 10.0511 9.67098 9.86032 9.53033 9.71967C9.38968 9.57902 9.19891 9.5 9 9.5V11ZM7 9.5C6.80109 9.5 6.61032 9.57902 6.46967 9.71967C6.32902 9.86032 6.25 10.0511 6.25 10.25C6.25 10.4489 6.32902 10.6397 6.46967 10.7803C6.61032 10.921 6.80109 11 7 11V9.5ZM17 8C17.1989 8 17.3897 7.92098 17.5303 7.78033C17.671 7.63968 17.75 7.44891 17.75 7.25C17.75 7.05109 17.671 6.86032 17.5303 6.71967C17.3897 6.57902 17.1989 6.5 17 6.5V8ZM15 6.5C14.8011 6.5 14.6103 6.57902 14.4697 6.71967C14.329 6.86032 14.25 7.05109 14.25 7.25C14.25 7.44891 14.329 7.63968 14.4697 7.78033C14.6103 7.92098 14.8011 8 15 8V6.5ZM17 11C17.1989 11 17.3897 10.921 17.5303 10.7803C17.671 10.6397 17.75 10.4489 17.75 10.25C17.75 10.0511 17.671 9.86032 17.5303 9.71967C17.3897 9.57902 17.1989 9.5 17 9.5V11ZM15 9.5C14.8011 9.5 14.6103 9.57902 14.4697 9.71967C14.329 9.86032 14.25 10.0511 14.25 10.25C14.25 10.4489 14.329 10.6397 14.4697 10.7803C14.6103 10.921 14.8011 11 15 11V9.5ZM11 6.5H13V5H11V6.5ZM14.25 7.75V9.75H15.75V7.75H14.25ZM13 11H11V12.5H13V11ZM9.75 9.75V7.75H8.25V9.75H9.75ZM11 11C10.507 11 10.213 10.998 10.003 10.97C9.94136 10.9637 9.88083 10.9492 9.823 10.927L8.763 11.987C9.072 12.297 9.447 12.409 9.803 12.457C10.137 12.502 10.55 12.5 11 12.5V11ZM8.25 9.75C8.25 10.2 8.248 10.613 8.293 10.947C8.341 11.303 8.453 11.678 8.763 11.987L9.823 10.927L9.822 10.924L9.817 10.914C9.79789 10.8601 9.78546 10.804 9.78 10.747C9.752 10.537 9.75 10.243 9.75 9.75H8.25ZM14.25 9.75C14.25 10.243 14.248 10.537 14.22 10.747C14.2137 10.8086 14.1992 10.8692 14.177 10.927L15.237 11.987C15.547 11.678 15.659 11.303 15.707 10.947C15.752 10.613 15.75 10.2 15.75 9.75H14.25ZM13 12.5C13.45 12.5 13.863 12.502 14.197 12.457C14.553 12.409 14.928 12.297 15.237 11.987L14.177 10.927L14.174 10.928L14.164 10.933C14.1101 10.9521 14.054 10.9645 13.997 10.97C13.787 10.998 13.493 11 13 11V12.5ZM13 6.5C13.493 6.5 13.787 6.502 13.997 6.53C14.0576 6.53624 14.1171 6.55036 14.174 6.572L14.177 6.573L15.237 5.513C14.928 5.203 14.553 5.091 14.197 5.043C13.863 4.998 13.45 5 13 5V6.5ZM15.75 7.75C15.75 7.3 15.752 6.887 15.707 6.553C15.659 6.197 15.547 5.822 15.237 5.513L14.177 6.573L14.178 6.576L14.183 6.586C14.192 6.608 14.207 6.656 14.22 6.753C14.248 6.963 14.25 7.257 14.25 7.75H15.75ZM11 5C10.55 5 10.137 4.998 9.803 5.043C9.447 5.091 9.072 5.203 8.763 5.513L9.823 6.573L9.826 6.572L9.836 6.567C9.88995 6.54789 9.94603 6.53546 10.003 6.53C10.213 6.502 10.507 6.5 11 6.5V5ZM9.75 7.75C9.75 7.257 9.752 6.963 9.78 6.753C9.7863 6.69136 9.80076 6.63083 9.823 6.573L8.763 5.513C8.453 5.822 8.341 6.197 8.293 6.553C8.248 6.887 8.25 7.3 8.25 7.75H9.75ZM9.75 11.75V13.75H11.25V11.75H9.75ZM12.75 11.75V13.75H14.25V11.75H12.75ZM9.75 3.75V5.75H11.25V3.75H9.75ZM12.75 3.75V5.75H14.25V3.75H12.75ZM9 6.5H7V8H9V6.5ZM9 9.5H7V11H9V9.5ZM17 6.5H15V8H17V6.5ZM17 9.5H15V11H17V9.5Z" data-figma-gradient-fill="{&#34;type&#34;:&#34;GRADIENT_DIAMOND&#34;,&#34;stops&#34;:[{&#34;color&#34;:{&#34;r&#34;:1.0,&#34;g&#34;:0.73333334922790527,&#34;b&#34;:0.0,&#34;a&#34;:1.0},&#34;position&#34;:0.0},{&#34;color&#34;:{&#34;r&#34;:0.46634614467620850,&#34;g&#34;:0.17263776063919067,&#34;b&#34;:0.17263776063919067,&#34;a&#34;:1.0},&#34;position&#34;:1.0}],&#34;stopsVar&#34;:[{&#34;color&#34;:{&#34;r&#34;:1.0,&#34;g&#34;:0.73333334922790527,&#34;b&#34;:0.0,&#34;a&#34;:1.0},&#34;position&#34;:0.0},{&#34;color&#34;:{&#34;r&#34;:0.46634614467620850,&#34;g&#34;:0.17263776063919067,&#34;b&#34;:0.17263776063919067,&#34;a&#34;:1.0},&#34;position&#34;:1.0}],&#34;transform&#34;:{&#34;m00&#34;:11.50,&#34;m01&#34;:0.0,&#34;m02&#34;:6.250,&#34;m10&#34;:0.0,&#34;m11&#34;:11.50,&#34;m12&#34;:3.0},&#34;opacity&#34;:1.0,&#34;blendMode&#34;:&#34;NORMAL&#34;,&#34;visible&#34;:true}"/>
<defs>
<clipPath id="paint0_diamond_1_1954_clip_path"><path d="M13 16.25C13 15.6977 12.5523 15.25 12 15.25C11.4477 15.25 11 15.6977 11 16.25H12H13ZM11 21.25C11 21.8023 11.4477 22.25 12 22.25C12.5523 22.25 13 21.8023 13 21.25H12H11ZM12 16.25H11V21.25H12H13V16.25H12Z"/></clipPath><clipPath id="paint1_diamond_1_1954_clip_path"><path d="M5.79305 5.01744C6.3356 5.12069 6.85912 4.76457 6.96237 4.22202C7.06562 3.67947 6.7095 3.15595 6.16695 3.0527L5.98 4.03507L5.79305 5.01744ZM2.72 4.17007L2.06973 3.41036L2.0693 3.41074L2.72 4.17007ZM2.463 18.3291L3.24094 17.7007L3.24081 17.7006L2.463 18.3291ZM5.981 19.4831L6.16826 18.5008L6.16802 18.5007L5.981 19.4831ZM10.239 20.9331L9.76388 21.813L9.76412 21.8131L10.239 20.9331ZM13.76 20.9331L13.2859 20.0526L13.2844 20.0534L13.76 20.9331ZM18.02 19.4831L18.2072 20.4654L18.2072 20.4654L18.02 19.4831ZM21.537 18.3291L20.7592 17.7006L20.7591 17.7007L21.537 18.3291ZM21.28 4.17007L21.9307 3.41074L21.9303 3.41037L21.28 4.17007ZM17.833 3.0527C17.2905 3.15595 16.9344 3.67947 17.0376 4.22202C17.1409 4.76457 17.6644 5.12069 18.207 5.01744L18.02 4.03507L17.833 3.0527ZM5.98 4.03507L6.16695 3.0527C5.3576 2.89867 4.61834 2.75405 3.99258 2.75009C3.29727 2.74568 2.65363 2.91057 2.06973 3.41037L2.72 4.17007L3.37027 4.92977C3.50837 4.81156 3.64873 4.74795 3.97992 4.75005C4.38066 4.75258 4.9104 4.84946 5.79305 5.01744L5.98 4.03507ZM2.72 4.17007L2.0693 3.41074C1.46605 3.92768 1.21361 4.59017 1.10188 5.3085C0.997173 5.98169 1 6.82569 1 7.79607H2H3C3 6.76044 3.00283 6.09995 3.07812 5.61589C3.14639 5.17696 3.25395 5.02945 3.3707 4.9294L2.72 4.17007ZM2 7.79607H1V15.0051H2H3V7.79607H2ZM2 15.0051H1C1 15.899 0.998592 16.6513 1.06378 17.2485C1.13023 17.8571 1.278 18.4536 1.68519 18.9576L2.463 18.3291L3.24081 17.7006C3.185 17.6315 3.10127 17.4831 3.05197 17.0314C3.00141 16.5683 3 15.9451 3 15.0051H2ZM2.463 18.3291L1.68506 18.9574C2.11156 19.4854 2.72543 19.7492 3.34613 19.9336C3.97311 20.12 4.7965 20.2755 5.79398 20.4654L5.981 19.4831L6.16802 18.5007C5.1275 18.3026 4.42289 18.1672 3.91587 18.0165C3.40257 17.864 3.27644 17.7447 3.24094 17.7007L2.463 18.3291ZM5.981 19.4831L5.79374 20.4654C7.51199 20.7929 8.83144 21.3095 9.76388 21.813L10.239 20.9331L10.7141 20.0531C9.59456 19.4486 8.08001 18.8652 6.16826 18.5008L5.981 19.4831ZM10.239 20.9331L9.76412 21.8131C10.2596 22.0805 10.663 22.2984 10.9723 22.4472C11.1281 22.5221 11.2846 22.5915 11.4341 22.6435C11.5721 22.6916 11.7735 22.7501 12 22.7501V21.7501V20.7501C12.103 20.7501 12.1487 20.7746 12.0913 20.7546C12.0452 20.7386 11.9663 20.7059 11.8389 20.6447C11.582 20.5212 11.2284 20.3306 10.7139 20.053L10.239 20.9331ZM12 21.7501V22.7501C12.2264 22.7501 12.4278 22.6916 12.5659 22.6436C12.7155 22.5916 12.872 22.5222 13.0279 22.4472C13.3376 22.2983 13.7407 22.0803 14.2356 21.8127L13.76 20.9331L13.2844 20.0534C12.7713 20.3308 12.4179 20.5214 12.1613 20.6447C12.0341 20.7058 11.9551 20.7385 11.909 20.7545C11.8515 20.7745 11.8971 20.7501 12 20.7501V21.7501ZM13.76 20.9331L14.2341 21.8135C15.1686 21.3104 16.4885 20.7929 18.2072 20.4654L18.02 19.4831L17.8328 18.5007C15.9195 18.8653 14.4054 19.4498 13.2859 20.0526L13.76 20.9331ZM18.02 19.4831L18.2072 20.4654C19.2036 20.2755 20.0267 20.1199 20.6536 19.9336C21.2741 19.7492 21.8884 19.4856 22.3149 18.9574L21.537 18.3291L20.7591 17.7007C20.7236 17.7446 20.5974 17.8639 20.0839 18.0165C19.5768 18.1672 18.8724 18.3026 17.8328 18.5007L18.02 19.4831ZM21.537 18.3291L22.3148 18.9576C22.722 18.4536 22.8698 17.8571 22.9362 17.2485C23.0014 16.6513 23 15.899 23 15.0051H22H21C21 15.9451 20.9986 16.5683 20.948 17.0314C20.8987 17.4831 20.815 17.6315 20.7592 17.7006L21.537 18.3291ZM22 15.0051H23V7.79607H22H21V15.0051H22ZM22 7.79607H23C23 6.82569 23.0028 5.98169 22.8981 5.3085C22.7864 4.59017 22.5339 3.92768 21.9307 3.41074L21.28 4.17007L20.6293 4.9294C20.7461 5.02945 20.8536 5.17696 20.9219 5.61589C20.9972 6.09995 21 6.76044 21 7.79607H22ZM21.28 4.17007L21.9303 3.41037C21.3464 2.91057 20.7027 2.74568 20.0074 2.75009C19.3817 2.75405 18.6424 2.89867 17.833 3.0527L18.02 4.03507L18.207 5.01744C19.0896 4.84946 19.6193 4.75258 20.0201 4.75005C20.3513 4.74795 20.4916 4.81156 20.6297 4.92977L21.28 4.17007Z"/></clipPath><clipPath id="paint2_diamond_1_1954_clip_path"><path d="M11.25 11.75C11.25 11.5511 11.171 11.3603 11.0303 11.2197C10.8897 11.079 10.6989 11 10.5 11C10.3011 11 10.1103 11.079 9.96967 11.2197C9.82902 11.3603 9.75 11.5511 9.75 11.75H11.25ZM9.75 13.75C9.75 13.9489 9.82902 14.1397 9.96967 14.2803C10.1103 14.421 10.3011 14.5 10.5 14.5C10.6989 14.5 10.8897 14.421 11.0303 14.2803C11.171 14.1397 11.25 13.9489 11.25 13.75H9.75ZM14.25 11.75C14.25 11.5511 14.171 11.3603 14.0303 11.2197C13.8897 11.079 13.6989 11 13.5 11C13.3011 11 13.1103 11.079 12.9697 11.2197C12.829 11.3603 12.75 11.5511 12.75 11.75H14.25ZM12.75 13.75C12.75 13.9489 12.829 14.1397 12.9697 14.2803C13.1103 14.421 13.3011 14.5 13.5 14.5C13.6989 14.5 13.8897 14.421 14.0303 14.2803C14.171 14.1397 14.25 13.9489 14.25 13.75H12.75ZM11.25 3.75C11.25 3.55109 11.171 3.36032 11.0303 3.21967C10.8897 3.07902 10.6989 3 10.5 3C10.3011 3 10.1103 3.07902 9.96967 3.21967C9.82902 3.36032 9.75 3.55109 9.75 3.75H11.25ZM9.75 5.75C9.75 5.94891 9.82902 6.13968 9.96967 6.28033C10.1103 6.42098 10.3011 6.5 10.5 6.5C10.6989 6.5 10.8897 6.42098 11.0303 6.28033C11.171 6.13968 11.25 5.94891 11.25 5.75H9.75ZM14.25 3.75C14.25 3.55109 14.171 3.36032 14.0303 3.21967C13.8897 3.07902 13.6989 3 13.5 3C13.3011 3 13.1103 3.07902 12.9697 3.21967C12.829 3.36032 12.75 3.55109 12.75 3.75H14.25ZM12.75 5.75C12.75 5.94891 12.829 6.13968 12.9697 6.28033C13.1103 6.42098 13.3011 6.5 13.5 6.5C13.6989 6.5 13.8897 6.42098 14.0303 6.28033C14.171 6.13968 14.25 5.94891 14.25 5.75H12.75ZM9 8C9.19891 8 9.38968 7.92098 9.53033 7.78033C9.67098 7.63968 9.75 7.44891 9.75 7.25C9.75 7.05109 9.67098 6.86032 9.53033 6.71967C9.38968 6.57902 9.19891 6.5 9 6.5V8ZM7 6.5C6.80109 6.5 6.61032 6.57902 6.46967 6.71967C6.32902 6.86032 6.25 7.05109 6.25 7.25C6.25 7.44891 6.32902 7.63968 6.46967 7.78033C6.61032 7.92098 6.80109 8 7 8V6.5ZM9 11C9.19891 11 9.38968 10.921 9.53033 10.7803C9.67098 10.6397 9.75 10.4489 9.75 10.25C9.75 10.0511 9.67098 9.86032 9.53033 9.71967C9.38968 9.57902 9.19891 9.5 9 9.5V11ZM7 9.5C6.80109 9.5 6.61032 9.57902 6.46967 9.71967C6.32902 9.86032 6.25 10.0511 6.25 10.25C6.25 10.4489 6.32902 10.6397 6.46967 10.7803C6.61032 10.921 6.80109 11 7 11V9.5ZM17 8C17.1989 8 17.3897 7.92098 17.5303 7.78033C17.671 7.63968 17.75 7.44891 17.75 7.25C17.75 7.05109 17.671 6.86032 17.5303 6.71967C17.3897 6.57902 17.1989 6.5 17 6.5V8ZM15 6.5C14.8011 6.5 14.6103 6.57902 14.4697 6.71967C14.329 6.86032 14.25 7.05109 14.25 7.25C14.25 7.44891 14.329 7.63968 14.4697 7.78033C14.6103 7.92098 14.8011 8 15 8V6.5ZM17 11C17.1989 11 17.3897 10.921 17.5303 10.7803C17.671 10.6397 17.75 10.4489 17.75 10.25C17.75 10.0511 17.671 9.86032 17.5303 9.71967C17.3897 9.57902 17.1989 9.5 17 9.5V11ZM15 9.5C14.8011 9.5 14.6103 9.57902 14.4697 9.71967C14.329 9.86032 14.25 10.0511 14.25 10.25C14.25 10.4489 14.329 10.6397 14.4697 10.7803C14.6103 10.921 14.8011 11 15 11V9.5ZM11 6.5H13V5H11V6.5ZM14.25 7.75V9.75H15.75V7.75H14.25ZM13 11H11V12.5H13V11ZM9.75 9.75V7.75H8.25V9.75H9.75ZM11 11C10.507 11 10.213 10.998 10.003 10.97C9.94136 10.9637 9.88083 10.9492 9.823 10.927L8.763 11.987C9.072 12.297 9.447 12.409 9.803 12.457C10.137 12.502 10.55 12.5 11 12.5V11ZM8.25 9.75C8.25 10.2 8.248 10.613 8.293 10.947C8.341 11.303 8.453 11.678 8.763 11.987L9.823 10.927L9.822 10.924L9.817 10.914C9.79789 10.8601 9.78546 10.804 9.78 10.747C9.752 10.537 9.75 10.243 9.75 9.75H8.25ZM14.25 9.75C14.25 10.243 14.248 10.537 14.22 10.747C14.2137 10.8086 14.1992 10.8692 14.177 10.927L15.237 11.987C15.547 11.678 15.659 11.303 15.707 10.947C15.752 10.613 15.75 10.2 15.75 9.75H14.25ZM13 12.5C13.45 12.5 13.863 12.502 14.197 12.457C14.553 12.409 14.928 12.297 15.237 11.987L14.177 10.927L14.174 10.928L14.164 10.933C14.1101 10.9521 14.054 10.9645 13.997 10.97C13.787 10.998 13.493 11 13 11V12.5ZM13 6.5C13.493 6.5 13.787 6.502 13.997 6.53C14.0576 6.53624 14.1171 6.55036 14.174 6.572L14.177 6.573L15.237 5.513C14.928 5.203 14.553 5.091 14.197 5.043C13.863 4.998 13.45 5 13 5V6.5ZM15.75 7.75C15.75 7.3 15.752 6.887 15.707 6.553C15.659 6.197 15.547 5.822 15.237 5.513L14.177 6.573L14.178 6.576L14.183 6.586C14.192 6.608 14.207 6.656 14.22 6.753C14.248 6.963 14.25 7.257 14.25 7.75H15.75ZM11 5C10.55 5 10.137 4.998 9.803 5.043C9.447 5.091 9.072 5.203 8.763 5.513L9.823 6.573L9.826 6.572L9.836 6.567C9.88995 6.54789 9.94603 6.53546 10.003 6.53C10.213 6.502 10.507 6.5 11 6.5V5ZM9.75 7.75C9.75 7.257 9.752 6.963 9.78 6.753C9.7863 6.69136 9.80076 6.63083 9.823 6.573L8.763 5.513C8.453 5.822 8.341 6.197 8.293 6.553C8.248 6.887 8.25 7.3 8.25 7.75H9.75ZM9.75 11.75V13.75H11.25V11.75H9.75ZM12.75 11.75V13.75H14.25V11.75H12.75ZM9.75 3.75V5.75H11.25V3.75H9.75ZM12.75 3.75V5.75H14.25V3.75H12.75ZM9 6.5H7V8H9V6.5ZM9 9.5H7V11H9V9.5ZM17 6.5H15V8H17V6.5ZM17 9.5H15V11H17V9.5Z"/></clipPath><linearGradient id="paint0_diamond_1_1954" x1="0" y1="0" x2="500" y2="500" gradientUnits="userSpaceOnUse">
<stop stop-color="#FFBB00"/>
<stop offset="1" stop-color="#772C2C"/>
</linearGradient>
<linearGradient id="paint1_diamond_1_1954" x1="0" y1="0" x2="500" y2="500" gradientUnits="userSpaceOnUse">
<stop stop-color="#FFBB00"/>
<stop offset="1" stop-color="#772C2C"/>
</linearGradient>
<linearGradient id="paint2_diamond_1_1954" x1="0" y1="0" x2="500" y2="500" gradientUnits="userSpaceOnUse">
<stop stop-color="#FFBB00"/>
<stop offset="1" stop-color="#772C2C"/>
</linearGradient>
</defs>
</svg>
