<svg width="24" height="24" viewBox="0 0 24 24" fill="none" xmlns="http://www.w3.org/2000/svg">
<g clip-path="url(#clip0_1_1792)">
<g clip-path="url(#paint0_diamond_1_1792_clip_path)" data-figma-skip-parse="true"><g transform="matrix(0.004 0 0 0.004 17 7)"><rect x="0" y="0" width="1500" height="1500" fill="url(#paint0_diamond_1_1792)" opacity="1" shape-rendering="crispEdges"/><rect x="0" y="0" width="1500" height="1500" transform="scale(1 -1)" fill="url(#paint0_diamond_1_1792)" opacity="1" shape-rendering="crispEdges"/><rect x="0" y="0" width="1500" height="1500" transform="scale(-1 1)" fill="url(#paint0_diamond_1_1792)" opacity="1" shape-rendering="crispEdges"/><rect x="0" y="0" width="1500" height="1500" transform="scale(-1)" fill="url(#paint0_diamond_1_1792)" opacity="1" shape-rendering="crispEdges"/></g></g><path d="M13 7C13.5202 6.8622 14.0274 6.67952 14.516 6.454C15.427 6.016 16.01 5.439 16.453 4.522C16.66 4.094 16.835 3.594 17 3C17.165 3.595 17.34 4.095 17.547 4.521C17.99 5.439 18.573 6.016 19.484 6.454C19.91 6.659 20.409 6.834 21 7C20.4798 7.13812 19.9726 7.32114 19.484 7.547C18.573 7.985 17.99 8.562 17.547 9.479C17.3194 9.96857 17.1363 10.4776 17 11C16.835 10.406 16.66 9.905 16.453 9.479C16.01 8.561 15.427 7.985 14.516 7.547C14.028 7.3197 13.5207 7.13663 13 7Z" data-figma-gradient-fill="{&#34;type&#34;:&#34;GRADIENT_DIAMOND&#34;,&#34;stops&#34;:[{&#34;color&#34;:{&#34;r&#34;:1.0,&#34;g&#34;:0.73333334922790527,&#34;b&#34;:0.0,&#34;a&#34;:1.0},&#34;position&#34;:0.0},{&#34;color&#34;:{&#34;r&#34;:0.46634614467620850,&#34;g&#34;:0.17263776063919067,&#34;b&#34;:0.17263776063919067,&#34;a&#34;:1.0},&#34;position&#34;:1.0}],&#34;stopsVar&#34;:[{&#34;color&#34;:{&#34;r&#34;:1.0,&#34;g&#34;:0.73333334922790527,&#34;b&#34;:0.0,&#34;a&#34;:1.0},&#34;position&#34;:0.0},{&#34;color&#34;:{&#34;r&#34;:0.46634614467620850,&#34;g&#34;:0.17263776063919067,&#34;b&#34;:0.17263776063919067,&#34;a&#34;:1.0},&#34;position&#34;:1.0}],&#34;transform&#34;:{&#34;m00&#34;:8.0,&#34;m01&#34;:0.0,&#34;m02&#34;:13.0,&#34;m10&#34;:0.0,&#34;m11&#34;:8.0,&#34;m12&#34;:3.0},&#34;opacity&#34;:1.0,&#34;blendMode&#34;:&#34;NORMAL&#34;,&#34;visible&#34;:true}"/>
<g clip-path="url(#paint1_diamond_1_1792_clip_path)" data-figma-skip-parse="true"><g transform="matrix(0.004 0 0 0.004 17 7)"><rect x="0" y="0" width="1500" height="1500" fill="url(#paint1_diamond_1_1792)" opacity="1" shape-rendering="crispEdges"/><rect x="0" y="0" width="1500" height="1500" transform="scale(1 -1)" fill="url(#paint1_diamond_1_1792)" opacity="1" shape-rendering="crispEdges"/><rect x="0" y="0" width="1500" height="1500" transform="scale(-1 1)" fill="url(#paint1_diamond_1_1792)" opacity="1" shape-rendering="crispEdges"/><rect x="0" y="0" width="1500" height="1500" transform="scale(-1)" fill="url(#paint1_diamond_1_1792)" opacity="1" shape-rendering="crispEdges"/></g></g><path d="M13 7L12.7439 6.03334C12.305 6.14962 11.9995 6.54707 12 7.00117C12.0005 7.45526 12.307 7.852 12.7462 7.96725L13 7ZM14.516 6.454L14.9351 7.36195C14.9398 7.35975 14.9446 7.35752 14.9493 7.35525L14.516 6.454ZM16.453 4.522L15.5528 4.0866L15.5526 4.087L16.453 4.522ZM17 3L17.9636 2.73277C17.8436 2.29982 17.4495 2.0001 17.0002 2C16.5509 1.9999 16.1567 2.29946 16.0365 2.73236L17 3ZM17.547 4.521L18.4476 4.08639L18.4464 4.08395L17.547 4.521ZM19.484 6.454L19.9176 5.55291L19.9173 5.55275L19.484 6.454ZM21 7L21.2566 7.96651C21.6923 7.85083 21.9968 7.45793 22 7.00715C22.0032 6.55637 21.7044 6.15916 21.2704 6.03726L21 7ZM19.484 7.547L19.0644 6.6393C19.0598 6.64142 19.0552 6.64357 19.0507 6.64575L19.484 7.547ZM17.547 9.479L16.6466 9.044C16.6444 9.04847 16.6423 9.05296 16.6402 9.05745L17.547 9.479ZM17 11L16.0365 11.2676C16.1575 11.7033 16.5557 12.0035 17.0078 12C17.4599 11.9964 17.8534 11.69 17.9676 11.2525L17 11ZM16.453 9.479L15.5524 9.91361L15.5536 9.91605L16.453 9.479ZM14.516 7.547L14.9493 6.64569L14.9383 6.64052L14.516 7.547ZM13 7L13.2561 7.96666C13.8322 7.81404 14.394 7.61171 14.9351 7.36195L14.516 6.454L14.0969 5.54605C13.6609 5.74732 13.2082 5.91036 12.7439 6.03334L13 7ZM14.516 6.454L14.9493 7.35525C16.0627 6.81994 16.8112 6.07939 17.3534 4.957L16.453 4.522L15.5526 4.087C15.2088 4.79861 14.7913 5.21206 14.0827 5.55275L14.516 6.454ZM16.453 4.522L17.3532 4.9574C17.5956 4.4562 17.7895 3.89419 17.9635 3.26764L17 3L16.0365 2.73236C15.8805 3.29381 15.7244 3.7318 15.5528 4.0866L16.453 4.522ZM17 3L16.0364 3.26723C16.2104 3.89469 16.4044 4.45769 16.6476 4.95805L17.547 4.521L18.4464 4.08395C18.2756 3.73231 18.1196 3.29531 17.9636 2.73277L17 3ZM17.547 4.521L16.6464 4.95561C17.1886 6.07919 17.9372 6.81988 19.0507 7.35525L19.484 6.454L19.9173 5.55275C19.2088 5.21212 18.7914 4.79881 18.4476 4.08639L17.547 4.521ZM19.484 6.454L19.0504 7.35509C19.5479 7.59452 20.1074 7.78797 20.7296 7.96274L21 7L21.2704 6.03726C20.7106 5.88003 20.2721 5.72348 19.9176 5.55291L19.484 6.454ZM21 7L20.7434 6.03349C20.1672 6.18646 19.6055 6.38916 19.0644 6.6393L19.484 7.547L19.9036 8.4547C20.3396 8.25312 20.7923 8.08978 21.2566 7.96651L21 7ZM19.484 7.547L19.0507 6.64575C17.9373 7.18106 17.1888 7.92161 16.6466 9.044L17.547 9.479L18.4474 9.914C18.7912 9.20239 19.2087 8.78894 19.9173 8.44825L19.484 7.547ZM17.547 9.479L16.6402 9.05745C16.3873 9.60142 16.1839 10.167 16.0324 10.7475L17 11L17.9676 11.2525C18.0888 10.7882 18.2515 10.3357 18.4538 9.90055L17.547 9.479ZM17 11L17.9635 10.7324C17.7897 10.1066 17.5957 9.54254 17.3524 9.04195L16.453 9.479L15.5536 9.91605C15.7243 10.2675 15.8803 10.7054 16.0365 11.2676L17 11ZM16.453 9.479L17.3536 9.04439C16.8112 7.9203 16.0623 7.18087 14.9493 6.64575L14.516 7.547L14.0827 8.44825C14.7917 8.78913 15.2088 9.2017 15.5524 9.91361L16.453 9.479ZM14.516 7.547L14.9383 6.64052C14.3961 6.38797 13.8323 6.18456 13.2538 6.03275L13 7L12.7462 7.96725C13.209 8.0887 13.66 8.25143 14.0937 8.45347L14.516 7.547Z" data-figma-gradient-fill="{&#34;type&#34;:&#34;GRADIENT_DIAMOND&#34;,&#34;stops&#34;:[{&#34;color&#34;:{&#34;r&#34;:1.0,&#34;g&#34;:0.73333334922790527,&#34;b&#34;:0.0,&#34;a&#34;:1.0},&#34;position&#34;:0.0},{&#34;color&#34;:{&#34;r&#34;:0.46634614467620850,&#34;g&#34;:0.17263776063919067,&#34;b&#34;:0.17263776063919067,&#34;a&#34;:1.0},&#34;position&#34;:1.0}],&#34;stopsVar&#34;:[{&#34;color&#34;:{&#34;r&#34;:1.0,&#34;g&#34;:0.73333334922790527,&#34;b&#34;:0.0,&#34;a&#34;:1.0},&#34;position&#34;:0.0},{&#34;color&#34;:{&#34;r&#34;:0.46634614467620850,&#34;g&#34;:0.17263776063919067,&#34;b&#34;:0.17263776063919067,&#34;a&#34;:1.0},&#34;position&#34;:1.0}],&#34;transform&#34;:{&#34;m00&#34;:8.0,&#34;m01&#34;:0.0,&#34;m02&#34;:13.0,&#34;m10&#34;:0.0,&#34;m11&#34;:8.0,&#34;m12&#34;:3.0},&#34;opacity&#34;:1.0,&#34;blendMode&#34;:&#34;NORMAL&#34;,&#34;visible&#34;:true}"/>
<g clip-path="url(#paint2_diamond_1_1792_clip_path)" data-figma-skip-parse="true"><g transform="matrix(0.007 0 0 0.007 10 14)"><rect x="0" y="0" width="1285.71" height="1285.71" fill="url(#paint2_diamond_1_1792)" opacity="1" shape-rendering="crispEdges"/><rect x="0" y="0" width="1285.71" height="1285.71" transform="scale(1 -1)" fill="url(#paint2_diamond_1_1792)" opacity="1" shape-rendering="crispEdges"/><rect x="0" y="0" width="1285.71" height="1285.71" transform="scale(-1 1)" fill="url(#paint2_diamond_1_1792)" opacity="1" shape-rendering="crispEdges"/><rect x="0" y="0" width="1285.71" height="1285.71" transform="scale(-1)" fill="url(#paint2_diamond_1_1792)" opacity="1" shape-rendering="crispEdges"/></g></g><path d="M3 14C3.55776 13.8455 4.1089 13.668 4.652 13.468C7.194 12.515 8.505 11.23 9.468 8.662C9.66943 8.116 9.84693 7.56148 10 7C10.1531 7.56148 10.3306 8.116 10.532 8.662C11.495 11.229 12.807 12.515 15.348 13.468C15.848 13.6547 16.3987 13.832 17 14C16.4422 14.1545 15.8911 14.332 15.348 14.532C12.806 15.485 11.494 16.77 10.532 19.338C10.3306 19.884 10.1531 20.4385 10 21C9.84693 20.4385 9.66943 19.884 9.468 19.338C8.505 16.77 7.193 15.485 4.652 14.532C4.1089 14.332 3.55776 14.1545 3 14Z" data-figma-gradient-fill="{&#34;type&#34;:&#34;GRADIENT_DIAMOND&#34;,&#34;stops&#34;:[{&#34;color&#34;:{&#34;r&#34;:1.0,&#34;g&#34;:0.73333334922790527,&#34;b&#34;:0.0,&#34;a&#34;:1.0},&#34;position&#34;:0.0},{&#34;color&#34;:{&#34;r&#34;:0.46634614467620850,&#34;g&#34;:0.17263776063919067,&#34;b&#34;:0.17263776063919067,&#34;a&#34;:1.0},&#34;position&#34;:1.0}],&#34;stopsVar&#34;:[{&#34;color&#34;:{&#34;r&#34;:1.0,&#34;g&#34;:0.73333334922790527,&#34;b&#34;:0.0,&#34;a&#34;:1.0},&#34;position&#34;:0.0},{&#34;color&#34;:{&#34;r&#34;:0.46634614467620850,&#34;g&#34;:0.17263776063919067,&#34;b&#34;:0.17263776063919067,&#34;a&#34;:1.0},&#34;position&#34;:1.0}],&#34;transform&#34;:{&#34;m00&#34;:14.0,&#34;m01&#34;:0.0,&#34;m02&#34;:3.0,&#34;m10&#34;:0.0,&#34;m11&#34;:14.0,&#34;m12&#34;:7.0},&#34;opacity&#34;:1.0,&#34;blendMode&#34;:&#34;NORMAL&#34;,&#34;visible&#34;:true}"/>
<g clip-path="url(#paint3_diamond_1_1792_clip_path)" data-figma-skip-parse="true"><g transform="matrix(0.007 0 0 0.007 10 14)"><rect x="0" y="0" width="1285.71" height="1285.71" fill="url(#paint3_diamond_1_1792)" opacity="1" shape-rendering="crispEdges"/><rect x="0" y="0" width="1285.71" height="1285.71" transform="scale(1 -1)" fill="url(#paint3_diamond_1_1792)" opacity="1" shape-rendering="crispEdges"/><rect x="0" y="0" width="1285.71" height="1285.71" transform="scale(-1 1)" fill="url(#paint3_diamond_1_1792)" opacity="1" shape-rendering="crispEdges"/><rect x="0" y="0" width="1285.71" height="1285.71" transform="scale(-1)" fill="url(#paint3_diamond_1_1792)" opacity="1" shape-rendering="crispEdges"/></g></g><path d="M3 14L2.73306 13.0363C2.29989 13.1563 2 13.5505 2 14C2 14.4495 2.29989 14.8437 2.73306 14.9637L3 14ZM4.652 13.468L4.99761 14.4064L5.00304 14.4044L4.652 13.468ZM9.468 8.662L10.4043 9.01313L10.4062 9.00812L9.468 8.662ZM10 7L10.9648 6.73698C10.8462 6.30187 10.451 6 10 6C9.54901 6 9.15383 6.30187 9.03521 6.73698L10 7ZM10.532 8.662L9.59379 9.00812L9.59572 9.01324L10.532 8.662ZM15.348 13.468L14.9968 14.4043L14.9982 14.4048L15.348 13.468ZM17 14L17.2669 14.9637C17.6997 14.8438 17.9995 14.4502 18 14.0011C18.0005 13.552 17.7016 13.1577 17.2691 13.0369L17 14ZM15.348 14.532L15.0024 13.5936L14.997 13.5956L15.348 14.532ZM10.532 19.338L9.59554 18.9872L9.59381 18.9919L10.532 19.338ZM10 21L9.03521 21.263C9.15383 21.6981 9.54901 22 10 22C10.451 22 10.8462 21.6981 10.9648 21.263L10 21ZM9.468 19.338L10.4062 18.9919L10.4043 18.9869L9.468 19.338ZM4.652 14.532L5.00317 13.5957L4.9976 13.5936L4.652 14.532ZM3 14L3.26694 14.9637C3.85126 14.8019 4.42864 14.6159 4.9976 14.4064L4.652 13.468L4.3064 12.5296C3.78916 12.7201 3.26427 12.8891 2.73306 13.0363L3 14ZM4.652 13.468L5.00304 14.4044C6.35984 13.8957 7.46037 13.2713 8.35715 12.3798C9.2544 11.4878 9.88931 10.3865 10.4043 9.01312L9.468 8.662L8.53167 8.31088C8.08369 9.5055 7.5816 10.3307 6.9471 10.9614C6.31213 11.5927 5.48616 12.0873 4.30096 12.5316L4.652 13.468ZM9.468 8.662L10.4062 9.00812C10.6177 8.43482 10.8041 7.85257 10.9648 7.26302L10 7L9.03521 6.73698C8.88979 7.27038 8.72117 7.79719 8.52981 8.31588L9.468 8.662ZM10 7L9.03521 7.26302C9.19593 7.85257 9.38231 8.43482 9.59381 9.00812L10.532 8.662L11.4702 8.31588C11.2788 7.79719 11.1102 7.27038 10.9648 6.73698L10 7ZM10.532 8.662L9.59572 9.01324C10.1108 10.3862 10.746 11.4874 11.6432 12.3794C12.54 13.271 13.6404 13.8956 14.9968 14.4043L15.348 13.468L15.6992 12.5317C14.5146 12.0874 13.6885 11.5925 13.0533 10.9611C12.4185 10.3301 11.9162 9.50478 11.4683 8.31076L10.532 8.662ZM15.348 13.468L14.9982 14.4048C15.5287 14.6029 16.1068 14.7887 16.7309 14.9631L17 14L17.2691 13.0369C16.6906 12.8753 16.1673 12.7064 15.6978 12.5312L15.348 13.468ZM17 14L16.7331 13.0363C16.1487 13.1981 15.5714 13.3841 15.0024 13.5936L15.348 14.532L15.6936 15.4704C16.2108 15.2799 16.7357 15.1109 17.2669 14.9637L17 14ZM15.348 14.532L14.997 13.5956C13.6402 14.1043 12.5395 14.7286 11.6425 15.6201C10.7451 16.5122 10.1101 17.6136 9.59555 18.9872L10.532 19.338L11.4684 19.6888C11.9159 18.4944 12.4179 17.6693 13.0525 17.0386C13.6875 16.4074 14.5138 15.9127 15.699 15.4684L15.348 14.532ZM10.532 19.338L9.59381 18.9919C9.38231 19.5652 9.19593 20.1474 9.03521 20.737L10 21L10.9648 21.263C11.1102 20.7296 11.2788 20.2028 11.4702 19.6841L10.532 19.338ZM10 21L10.9648 20.737C10.8041 20.1474 10.6177 19.5652 10.4062 18.9919L9.468 19.338L8.52981 19.6841C8.72117 20.2028 8.88979 20.7296 9.03521 21.263L10 21ZM9.468 19.338L10.4043 18.9869C9.88926 17.6134 9.25406 16.5121 8.35671 15.6201C7.45987 14.7287 6.35942 14.1043 5.00316 13.5957L4.652 14.532L4.30084 15.4683C5.48558 15.9127 6.31163 16.4073 6.94679 17.0386C7.58144 17.6694 8.08374 18.4946 8.53167 19.6891L9.468 19.338ZM4.652 14.532L4.9976 13.5936C4.42864 13.3841 3.85126 13.1981 3.26694 13.0363L3 14L2.73306 14.9637C3.26427 15.1109 3.78916 15.2799 4.3064 15.4704L4.652 14.532Z" data-figma-gradient-fill="{&#34;type&#34;:&#34;GRADIENT_DIAMOND&#34;,&#34;stops&#34;:[{&#34;color&#34;:{&#34;r&#34;:1.0,&#34;g&#34;:0.73333334922790527,&#34;b&#34;:0.0,&#34;a&#34;:1.0},&#34;position&#34;:0.0},{&#34;color&#34;:{&#34;r&#34;:0.46634614467620850,&#34;g&#34;:0.17263776063919067,&#34;b&#34;:0.17263776063919067,&#34;a&#34;:1.0},&#34;position&#34;:1.0}],&#34;stopsVar&#34;:[{&#34;color&#34;:{&#34;r&#34;:1.0,&#34;g&#34;:0.73333334922790527,&#34;b&#34;:0.0,&#34;a&#34;:1.0},&#34;position&#34;:0.0},{&#34;color&#34;:{&#34;r&#34;:0.46634614467620850,&#34;g&#34;:0.17263776063919067,&#34;b&#34;:0.17263776063919067,&#34;a&#34;:1.0},&#34;position&#34;:1.0}],&#34;transform&#34;:{&#34;m00&#34;:14.0,&#34;m01&#34;:0.0,&#34;m02&#34;:3.0,&#34;m10&#34;:0.0,&#34;m11&#34;:14.0,&#34;m12&#34;:7.0},&#34;opacity&#34;:1.0,&#34;blendMode&#34;:&#34;NORMAL&#34;,&#34;visible&#34;:true}"/>
</g>
<defs>
<clipPath id="paint0_diamond_1_1792_clip_path"><path d="M13 7C13.5202 6.8622 14.0274 6.67952 14.516 6.454C15.427 6.016 16.01 5.439 16.453 4.522C16.66 4.094 16.835 3.594 17 3C17.165 3.595 17.34 4.095 17.547 4.521C17.99 5.439 18.573 6.016 19.484 6.454C19.91 6.659 20.409 6.834 21 7C20.4798 7.13812 19.9726 7.32114 19.484 7.547C18.573 7.985 17.99 8.562 17.547 9.479C17.3194 9.96857 17.1363 10.4776 17 11C16.835 10.406 16.66 9.905 16.453 9.479C16.01 8.561 15.427 7.985 14.516 7.547C14.028 7.3197 13.5207 7.13663 13 7Z"/></clipPath><clipPath id="paint1_diamond_1_1792_clip_path"><path d="M13 7L12.7439 6.03334C12.305 6.14962 11.9995 6.54707 12 7.00117C12.0005 7.45526 12.307 7.852 12.7462 7.96725L13 7ZM14.516 6.454L14.9351 7.36195C14.9398 7.35975 14.9446 7.35752 14.9493 7.35525L14.516 6.454ZM16.453 4.522L15.5528 4.0866L15.5526 4.087L16.453 4.522ZM17 3L17.9636 2.73277C17.8436 2.29982 17.4495 2.0001 17.0002 2C16.5509 1.9999 16.1567 2.29946 16.0365 2.73236L17 3ZM17.547 4.521L18.4476 4.08639L18.4464 4.08395L17.547 4.521ZM19.484 6.454L19.9176 5.55291L19.9173 5.55275L19.484 6.454ZM21 7L21.2566 7.96651C21.6923 7.85083 21.9968 7.45793 22 7.00715C22.0032 6.55637 21.7044 6.15916 21.2704 6.03726L21 7ZM19.484 7.547L19.0644 6.6393C19.0598 6.64142 19.0552 6.64357 19.0507 6.64575L19.484 7.547ZM17.547 9.479L16.6466 9.044C16.6444 9.04847 16.6423 9.05296 16.6402 9.05745L17.547 9.479ZM17 11L16.0365 11.2676C16.1575 11.7033 16.5557 12.0035 17.0078 12C17.4599 11.9964 17.8534 11.69 17.9676 11.2525L17 11ZM16.453 9.479L15.5524 9.91361L15.5536 9.91605L16.453 9.479ZM14.516 7.547L14.9493 6.64569L14.9383 6.64052L14.516 7.547ZM13 7L13.2561 7.96666C13.8322 7.81404 14.394 7.61171 14.9351 7.36195L14.516 6.454L14.0969 5.54605C13.6609 5.74732 13.2082 5.91036 12.7439 6.03334L13 7ZM14.516 6.454L14.9493 7.35525C16.0627 6.81994 16.8112 6.07939 17.3534 4.957L16.453 4.522L15.5526 4.087C15.2088 4.79861 14.7913 5.21206 14.0827 5.55275L14.516 6.454ZM16.453 4.522L17.3532 4.9574C17.5956 4.4562 17.7895 3.89419 17.9635 3.26764L17 3L16.0365 2.73236C15.8805 3.29381 15.7244 3.7318 15.5528 4.0866L16.453 4.522ZM17 3L16.0364 3.26723C16.2104 3.89469 16.4044 4.45769 16.6476 4.95805L17.547 4.521L18.4464 4.08395C18.2756 3.73231 18.1196 3.29531 17.9636 2.73277L17 3ZM17.547 4.521L16.6464 4.95561C17.1886 6.07919 17.9372 6.81988 19.0507 7.35525L19.484 6.454L19.9173 5.55275C19.2088 5.21212 18.7914 4.79881 18.4476 4.08639L17.547 4.521ZM19.484 6.454L19.0504 7.35509C19.5479 7.59452 20.1074 7.78797 20.7296 7.96274L21 7L21.2704 6.03726C20.7106 5.88003 20.2721 5.72348 19.9176 5.55291L19.484 6.454ZM21 7L20.7434 6.03349C20.1672 6.18646 19.6055 6.38916 19.0644 6.6393L19.484 7.547L19.9036 8.4547C20.3396 8.25312 20.7923 8.08978 21.2566 7.96651L21 7ZM19.484 7.547L19.0507 6.64575C17.9373 7.18106 17.1888 7.92161 16.6466 9.044L17.547 9.479L18.4474 9.914C18.7912 9.20239 19.2087 8.78894 19.9173 8.44825L19.484 7.547ZM17.547 9.479L16.6402 9.05745C16.3873 9.60142 16.1839 10.167 16.0324 10.7475L17 11L17.9676 11.2525C18.0888 10.7882 18.2515 10.3357 18.4538 9.90055L17.547 9.479ZM17 11L17.9635 10.7324C17.7897 10.1066 17.5957 9.54254 17.3524 9.04195L16.453 9.479L15.5536 9.91605C15.7243 10.2675 15.8803 10.7054 16.0365 11.2676L17 11ZM16.453 9.479L17.3536 9.04439C16.8112 7.9203 16.0623 7.18087 14.9493 6.64575L14.516 7.547L14.0827 8.44825C14.7917 8.78913 15.2088 9.2017 15.5524 9.91361L16.453 9.479ZM14.516 7.547L14.9383 6.64052C14.3961 6.38797 13.8323 6.18456 13.2538 6.03275L13 7L12.7462 7.96725C13.209 8.0887 13.66 8.25143 14.0937 8.45347L14.516 7.547Z"/></clipPath><clipPath id="paint2_diamond_1_1792_clip_path"><path d="M3 14C3.55776 13.8455 4.1089 13.668 4.652 13.468C7.194 12.515 8.505 11.23 9.468 8.662C9.66943 8.116 9.84693 7.56148 10 7C10.1531 7.56148 10.3306 8.116 10.532 8.662C11.495 11.229 12.807 12.515 15.348 13.468C15.848 13.6547 16.3987 13.832 17 14C16.4422 14.1545 15.8911 14.332 15.348 14.532C12.806 15.485 11.494 16.77 10.532 19.338C10.3306 19.884 10.1531 20.4385 10 21C9.84693 20.4385 9.66943 19.884 9.468 19.338C8.505 16.77 7.193 15.485 4.652 14.532C4.1089 14.332 3.55776 14.1545 3 14Z"/></clipPath><clipPath id="paint3_diamond_1_1792_clip_path"><path d="M3 14L2.73306 13.0363C2.29989 13.1563 2 13.5505 2 14C2 14.4495 2.29989 14.8437 2.73306 14.9637L3 14ZM4.652 13.468L4.99761 14.4064L5.00304 14.4044L4.652 13.468ZM9.468 8.662L10.4043 9.01313L10.4062 9.00812L9.468 8.662ZM10 7L10.9648 6.73698C10.8462 6.30187 10.451 6 10 6C9.54901 6 9.15383 6.30187 9.03521 6.73698L10 7ZM10.532 8.662L9.59379 9.00812L9.59572 9.01324L10.532 8.662ZM15.348 13.468L14.9968 14.4043L14.9982 14.4048L15.348 13.468ZM17 14L17.2669 14.9637C17.6997 14.8438 17.9995 14.4502 18 14.0011C18.0005 13.552 17.7016 13.1577 17.2691 13.0369L17 14ZM15.348 14.532L15.0024 13.5936L14.997 13.5956L15.348 14.532ZM10.532 19.338L9.59554 18.9872L9.59381 18.9919L10.532 19.338ZM10 21L9.03521 21.263C9.15383 21.6981 9.54901 22 10 22C10.451 22 10.8462 21.6981 10.9648 21.263L10 21ZM9.468 19.338L10.4062 18.9919L10.4043 18.9869L9.468 19.338ZM4.652 14.532L5.00317 13.5957L4.9976 13.5936L4.652 14.532ZM3 14L3.26694 14.9637C3.85126 14.8019 4.42864 14.6159 4.9976 14.4064L4.652 13.468L4.3064 12.5296C3.78916 12.7201 3.26427 12.8891 2.73306 13.0363L3 14ZM4.652 13.468L5.00304 14.4044C6.35984 13.8957 7.46037 13.2713 8.35715 12.3798C9.2544 11.4878 9.88931 10.3865 10.4043 9.01312L9.468 8.662L8.53167 8.31088C8.08369 9.5055 7.5816 10.3307 6.9471 10.9614C6.31213 11.5927 5.48616 12.0873 4.30096 12.5316L4.652 13.468ZM9.468 8.662L10.4062 9.00812C10.6177 8.43482 10.8041 7.85257 10.9648 7.26302L10 7L9.03521 6.73698C8.88979 7.27038 8.72117 7.79719 8.52981 8.31588L9.468 8.662ZM10 7L9.03521 7.26302C9.19593 7.85257 9.38231 8.43482 9.59381 9.00812L10.532 8.662L11.4702 8.31588C11.2788 7.79719 11.1102 7.27038 10.9648 6.73698L10 7ZM10.532 8.662L9.59572 9.01324C10.1108 10.3862 10.746 11.4874 11.6432 12.3794C12.54 13.271 13.6404 13.8956 14.9968 14.4043L15.348 13.468L15.6992 12.5317C14.5146 12.0874 13.6885 11.5925 13.0533 10.9611C12.4185 10.3301 11.9162 9.50478 11.4683 8.31076L10.532 8.662ZM15.348 13.468L14.9982 14.4048C15.5287 14.6029 16.1068 14.7887 16.7309 14.9631L17 14L17.2691 13.0369C16.6906 12.8753 16.1673 12.7064 15.6978 12.5312L15.348 13.468ZM17 14L16.7331 13.0363C16.1487 13.1981 15.5714 13.3841 15.0024 13.5936L15.348 14.532L15.6936 15.4704C16.2108 15.2799 16.7357 15.1109 17.2669 14.9637L17 14ZM15.348 14.532L14.997 13.5956C13.6402 14.1043 12.5395 14.7286 11.6425 15.6201C10.7451 16.5122 10.1101 17.6136 9.59555 18.9872L10.532 19.338L11.4684 19.6888C11.9159 18.4944 12.4179 17.6693 13.0525 17.0386C13.6875 16.4074 14.5138 15.9127 15.699 15.4684L15.348 14.532ZM10.532 19.338L9.59381 18.9919C9.38231 19.5652 9.19593 20.1474 9.03521 20.737L10 21L10.9648 21.263C11.1102 20.7296 11.2788 20.2028 11.4702 19.6841L10.532 19.338ZM10 21L10.9648 20.737C10.8041 20.1474 10.6177 19.5652 10.4062 18.9919L9.468 19.338L8.52981 19.6841C8.72117 20.2028 8.88979 20.7296 9.03521 21.263L10 21ZM9.468 19.338L10.4043 18.9869C9.88926 17.6134 9.25406 16.5121 8.35671 15.6201C7.45987 14.7287 6.35942 14.1043 5.00316 13.5957L4.652 14.532L4.30084 15.4683C5.48558 15.9127 6.31163 16.4073 6.94679 17.0386C7.58144 17.6694 8.08374 18.4946 8.53167 19.6891L9.468 19.338ZM4.652 14.532L4.9976 13.5936C4.42864 13.3841 3.85126 13.1981 3.26694 13.0363L3 14L2.73306 14.9637C3.26427 15.1109 3.78916 15.2799 4.3064 15.4704L4.652 14.532Z"/></clipPath><linearGradient id="paint0_diamond_1_1792" x1="0" y1="0" x2="500" y2="500" gradientUnits="userSpaceOnUse">
<stop stop-color="#FFBB00"/>
<stop offset="1" stop-color="#772C2C"/>
</linearGradient>
<linearGradient id="paint1_diamond_1_1792" x1="0" y1="0" x2="500" y2="500" gradientUnits="userSpaceOnUse">
<stop stop-color="#FFBB00"/>
<stop offset="1" stop-color="#772C2C"/>
</linearGradient>
<linearGradient id="paint2_diamond_1_1792" x1="0" y1="0" x2="500" y2="500" gradientUnits="userSpaceOnUse">
<stop stop-color="#FFBB00"/>
<stop offset="1" stop-color="#772C2C"/>
</linearGradient>
<linearGradient id="paint3_diamond_1_1792" x1="0" y1="0" x2="500" y2="500" gradientUnits="userSpaceOnUse">
<stop stop-color="#FFBB00"/>
<stop offset="1" stop-color="#772C2C"/>
</linearGradient>
<clipPath id="clip0_1_1792">
<rect width="24" height="24" fill="white"/>
</clipPath>
</defs>
</svg>
