<svg width="24" height="24" viewBox="0 0 24 24" fill="none" xmlns="http://www.w3.org/2000/svg">
<path d="M11.7 7.5C12.3929 4.53938 15.0097 3.02766 20.7071 3.00001C20.7982 2.99963 20.8885 3.01878 20.9727 3.05634C21.0569 3.0939 21.1334 3.14913 21.1978 3.21885C21.2622 3.28856 21.3133 3.37139 21.348 3.46255C21.3827 3.55372 21.4003 3.65141 21.4 3.75001V17.25C21.4 17.4489 21.327 17.6397 21.1971 17.7803C21.0671 17.921 20.8909 18 20.7071 18C15.1643 18 13.0229 19.2098 11.7 21M11.7 7.5C11.0071 4.53938 8.39031 3.02766 2.69286 3.00001C2.60178 2.99963 2.51153 3.01878 2.42731 3.05634C2.34309 3.0939 2.26658 3.14913 2.20217 3.21885C2.13777 3.28856 2.08674 3.37139 2.05205 3.46255C2.01735 3.55372 1.99966 3.65141 2 3.75001V17.1595C2 17.6227 2.26502 18 2.69286 18C8.23572 18 10.3849 19.2188 11.7 21M11.7 7.5V21" stroke="#4F4F4F" stroke-width="2" stroke-linecap="round" stroke-linejoin="round"/>
</svg>
