<svg width="24" height="24" viewBox="0 0 24 24" fill="none" xmlns="http://www.w3.org/2000/svg">
<path d="M11.7 7.5C12.3929 4.53938 15.0097 3.02766 20.7071 3.00001C20.7982 2.99963 20.8885 3.01878 20.9727 3.05634C21.0569 3.0939 21.1334 3.14913 21.1978 3.21885C21.2622 3.28856 21.3133 3.37139 21.348 3.46255C21.3827 3.55372 21.4003 3.65141 21.4 3.75001V17.25C21.4 17.4489 21.327 17.6397 21.1971 17.7803C21.0671 17.921 20.8909 18 20.7071 18C15.1643 18 13.0229 19.2098 11.7 21C10.3849 19.2188 8.23572 18 2.69286 18C2.26502 18 2 17.6227 2 17.1595V3.75001C1.99966 3.65141 2.01735 3.55372 2.05205 3.46255C2.08674 3.37139 2.13777 3.28856 2.20217 3.21885C2.26658 3.14913 2.34309 3.0939 2.42731 3.05634C2.51153 3.01878 2.60178 2.99963 2.69286 3.00001C8.39031 3.02766 11.0071 4.53938 11.7 7.5ZM11.7 7.5V21Z" fill="url(#paint0_radial_1_1592)"/>
<g clip-path="url(#paint1_diamond_1_1592_clip_path)" data-figma-skip-parse="true"><g transform="matrix(0.0097 0 0 0.009 11.7 12)"><rect x="0" y="0" width="1206.19" height="1222.22" fill="url(#paint1_diamond_1_1592)" opacity="1" shape-rendering="crispEdges"/><rect x="0" y="0" width="1206.19" height="1222.22" transform="scale(1 -1)" fill="url(#paint1_diamond_1_1592)" opacity="1" shape-rendering="crispEdges"/><rect x="0" y="0" width="1206.19" height="1222.22" transform="scale(-1 1)" fill="url(#paint1_diamond_1_1592)" opacity="1" shape-rendering="crispEdges"/><rect x="0" y="0" width="1206.19" height="1222.22" transform="scale(-1)" fill="url(#paint1_diamond_1_1592)" opacity="1" shape-rendering="crispEdges"/></g></g><path d="M20.7071 3.00001L20.7031 2.00001L20.7023 2.00002L20.7071 3.00001ZM21.4 3.75001L20.4 3.74652V3.75001H21.4ZM11.7 21L10.8955 21.594C11.084 21.8493 11.3825 21.9999 11.6998 22C12.0171 22.0001 12.3156 21.8495 12.5042 21.5943L11.7 21ZM2 3.75001H3.00001L3 3.74652L2 3.75001ZM2.69286 3.00001L2.69772 2.00002L2.69694 2.00001L2.69286 3.00001ZM11.7 7.5L12.6737 7.72787C12.9547 6.52719 13.5976 5.65312 14.7862 5.03838C16.0333 4.3934 17.9263 4.01352 20.712 3.99999L20.7071 3.00001L20.7023 2.00002C17.7905 2.01415 15.5264 2.40395 13.8675 3.2619C12.1501 4.15009 11.1382 5.51219 10.7263 7.27214L11.7 7.5ZM20.7071 3.00001L20.7112 4C20.6588 4.00021 20.6089 3.98906 20.5654 3.96963L20.9727 3.05634L21.38 2.14305C21.168 2.0485 20.9377 1.99906 20.7031 2.00001L20.7071 3.00001ZM20.9727 3.05634L20.5654 3.96963C20.5221 3.95031 20.4882 3.92433 20.4633 3.89742L21.1978 3.21885L21.9324 2.54028C21.7787 2.37393 21.5917 2.23748 21.38 2.14305L20.9727 3.05634ZM21.1978 3.21885L20.4633 3.89742C20.4386 3.87067 20.4228 3.84314 20.4134 3.81827L21.348 3.46255L22.2825 3.10683C22.2037 2.89964 22.0859 2.70646 21.9324 2.54028L21.1978 3.21885ZM21.348 3.46255L20.4134 3.81827C20.4039 3.79347 20.3999 3.76931 20.4 3.74652L21.4 3.75001L22.4 3.75349C22.4008 3.53351 22.3614 3.31396 22.2825 3.10683L21.348 3.46255ZM21.4 3.75001H20.4V17.25H21.4H22.4V3.75001H21.4ZM21.4 17.25H20.4C20.4 17.2081 20.4146 17.1536 20.4625 17.1018L21.1971 17.7803L21.9316 18.4589C22.2394 18.1257 22.4 17.6897 22.4 17.25H21.4ZM21.1971 17.7803L20.4625 17.1018C20.5129 17.0472 20.599 17 20.7071 17V18V19C21.1828 19 21.6214 18.7947 21.9316 18.4589L21.1971 17.7803ZM20.7071 18V17C17.8755 17 15.8196 17.3072 14.2678 17.8932C12.6823 18.4919 11.6638 19.3664 10.8958 20.4057L11.7 21L12.5042 21.5943C13.0591 20.8434 13.7727 20.218 14.9744 19.7642C16.2097 19.2977 17.9959 19 20.7071 19V18ZM11.7 21L12.5045 20.406C11.7399 19.3705 10.7212 18.4963 9.13553 17.8967C7.58299 17.3096 5.52528 17 2.69286 17V18V19C5.4033 19 7.19159 19.2998 8.42812 19.7674C9.63156 20.2225 10.345 20.8483 10.8955 21.594L11.7 21ZM2.69286 18V17C2.73661 17 2.79385 17.0106 2.85222 17.0398C2.90913 17.0684 2.94835 17.1051 2.97199 17.1352C3.01532 17.1903 3 17.2099 3 17.1595H2H1C1 17.5723 1.1172 18.0121 1.4 18.3717C1.69773 18.7502 2.15397 19 2.69286 19V18ZM2 17.1595H3V3.75001H2H1V17.1595H2ZM2 3.75001L3 3.74652C3.00008 3.7693 2.99608 3.79347 2.98664 3.81827L2.05205 3.46255L1.11745 3.10683C1.03862 3.31396 0.999245 3.53352 1.00001 3.75349L2 3.75001ZM2.05205 3.46255L2.98664 3.81827C2.97717 3.84315 2.96142 3.87067 2.93671 3.89742L2.20217 3.21885L1.46764 2.54028C1.31412 2.70646 1.19632 2.89964 1.11745 3.10683L2.05205 3.46255ZM2.20217 3.21885L2.93671 3.89742C2.91185 3.92433 2.87793 3.95031 2.83462 3.96963L2.42731 3.05634L2.02 2.14305C1.80826 2.23748 1.62131 2.37393 1.46764 2.54028L2.20217 3.21885ZM2.42731 3.05634L2.83462 3.96963C2.79106 3.98906 2.74122 4.00021 2.68878 4L2.69286 3.00001L2.69694 2.00001C2.46233 1.99906 2.232 2.0485 2.02 2.14305L2.42731 3.05634ZM2.69286 3.00001L2.68801 3.99999C5.47369 4.01352 7.36667 4.3934 8.61377 5.03838C9.8024 5.65312 10.4453 6.52719 10.7263 7.72787L11.7 7.5L12.6737 7.27214C12.2618 5.51219 11.2499 4.15009 9.53253 3.2619C7.87364 2.40395 5.60948 2.01415 2.69772 2.00002L2.69286 3.00001ZM11.7 7.5H10.7V21H11.7H12.7V7.5H11.7Z" data-figma-gradient-fill="{&#34;type&#34;:&#34;GRADIENT_DIAMOND&#34;,&#34;stops&#34;:[{&#34;color&#34;:{&#34;r&#34;:1.0,&#34;g&#34;:0.73333334922790527,&#34;b&#34;:0.0,&#34;a&#34;:1.0},&#34;position&#34;:0.0},{&#34;color&#34;:{&#34;r&#34;:0.46634614467620850,&#34;g&#34;:0.17263776063919067,&#34;b&#34;:0.17263776063919067,&#34;a&#34;:1.0},&#34;position&#34;:1.0}],&#34;stopsVar&#34;:[{&#34;color&#34;:{&#34;r&#34;:1.0,&#34;g&#34;:0.73333334922790527,&#34;b&#34;:0.0,&#34;a&#34;:1.0},&#34;position&#34;:0.0},{&#34;color&#34;:{&#34;r&#34;:0.46634614467620850,&#34;g&#34;:0.17263776063919067,&#34;b&#34;:0.17263776063919067,&#34;a&#34;:1.0},&#34;position&#34;:1.0}],&#34;transform&#34;:{&#34;m00&#34;:19.399999618530273,&#34;m01&#34;:0.0,&#34;m02&#34;:2.0,&#34;m10&#34;:0.0,&#34;m11&#34;:18.0,&#34;m12&#34;:3.0},&#34;opacity&#34;:1.0,&#34;blendMode&#34;:&#34;NORMAL&#34;,&#34;visible&#34;:true}"/>
<defs>
<clipPath id="paint1_diamond_1_1592_clip_path"><path d="M20.7071 3.00001L20.7031 2.00001L20.7023 2.00002L20.7071 3.00001ZM21.4 3.75001L20.4 3.74652V3.75001H21.4ZM11.7 21L10.8955 21.594C11.084 21.8493 11.3825 21.9999 11.6998 22C12.0171 22.0001 12.3156 21.8495 12.5042 21.5943L11.7 21ZM2 3.75001H3.00001L3 3.74652L2 3.75001ZM2.69286 3.00001L2.69772 2.00002L2.69694 2.00001L2.69286 3.00001ZM11.7 7.5L12.6737 7.72787C12.9547 6.52719 13.5976 5.65312 14.7862 5.03838C16.0333 4.3934 17.9263 4.01352 20.712 3.99999L20.7071 3.00001L20.7023 2.00002C17.7905 2.01415 15.5264 2.40395 13.8675 3.2619C12.1501 4.15009 11.1382 5.51219 10.7263 7.27214L11.7 7.5ZM20.7071 3.00001L20.7112 4C20.6588 4.00021 20.6089 3.98906 20.5654 3.96963L20.9727 3.05634L21.38 2.14305C21.168 2.0485 20.9377 1.99906 20.7031 2.00001L20.7071 3.00001ZM20.9727 3.05634L20.5654 3.96963C20.5221 3.95031 20.4882 3.92433 20.4633 3.89742L21.1978 3.21885L21.9324 2.54028C21.7787 2.37393 21.5917 2.23748 21.38 2.14305L20.9727 3.05634ZM21.1978 3.21885L20.4633 3.89742C20.4386 3.87067 20.4228 3.84314 20.4134 3.81827L21.348 3.46255L22.2825 3.10683C22.2037 2.89964 22.0859 2.70646 21.9324 2.54028L21.1978 3.21885ZM21.348 3.46255L20.4134 3.81827C20.4039 3.79347 20.3999 3.76931 20.4 3.74652L21.4 3.75001L22.4 3.75349C22.4008 3.53351 22.3614 3.31396 22.2825 3.10683L21.348 3.46255ZM21.4 3.75001H20.4V17.25H21.4H22.4V3.75001H21.4ZM21.4 17.25H20.4C20.4 17.2081 20.4146 17.1536 20.4625 17.1018L21.1971 17.7803L21.9316 18.4589C22.2394 18.1257 22.4 17.6897 22.4 17.25H21.4ZM21.1971 17.7803L20.4625 17.1018C20.5129 17.0472 20.599 17 20.7071 17V18V19C21.1828 19 21.6214 18.7947 21.9316 18.4589L21.1971 17.7803ZM20.7071 18V17C17.8755 17 15.8196 17.3072 14.2678 17.8932C12.6823 18.4919 11.6638 19.3664 10.8958 20.4057L11.7 21L12.5042 21.5943C13.0591 20.8434 13.7727 20.218 14.9744 19.7642C16.2097 19.2977 17.9959 19 20.7071 19V18ZM11.7 21L12.5045 20.406C11.7399 19.3705 10.7212 18.4963 9.13553 17.8967C7.58299 17.3096 5.52528 17 2.69286 17V18V19C5.4033 19 7.19159 19.2998 8.42812 19.7674C9.63156 20.2225 10.345 20.8483 10.8955 21.594L11.7 21ZM2.69286 18V17C2.73661 17 2.79385 17.0106 2.85222 17.0398C2.90913 17.0684 2.94835 17.1051 2.97199 17.1352C3.01532 17.1903 3 17.2099 3 17.1595H2H1C1 17.5723 1.1172 18.0121 1.4 18.3717C1.69773 18.7502 2.15397 19 2.69286 19V18ZM2 17.1595H3V3.75001H2H1V17.1595H2ZM2 3.75001L3 3.74652C3.00008 3.7693 2.99608 3.79347 2.98664 3.81827L2.05205 3.46255L1.11745 3.10683C1.03862 3.31396 0.999245 3.53352 1.00001 3.75349L2 3.75001ZM2.05205 3.46255L2.98664 3.81827C2.97717 3.84315 2.96142 3.87067 2.93671 3.89742L2.20217 3.21885L1.46764 2.54028C1.31412 2.70646 1.19632 2.89964 1.11745 3.10683L2.05205 3.46255ZM2.20217 3.21885L2.93671 3.89742C2.91185 3.92433 2.87793 3.95031 2.83462 3.96963L2.42731 3.05634L2.02 2.14305C1.80826 2.23748 1.62131 2.37393 1.46764 2.54028L2.20217 3.21885ZM2.42731 3.05634L2.83462 3.96963C2.79106 3.98906 2.74122 4.00021 2.68878 4L2.69286 3.00001L2.69694 2.00001C2.46233 1.99906 2.232 2.0485 2.02 2.14305L2.42731 3.05634ZM2.69286 3.00001L2.68801 3.99999C5.47369 4.01352 7.36667 4.3934 8.61377 5.03838C9.8024 5.65312 10.4453 6.52719 10.7263 7.72787L11.7 7.5L12.6737 7.27214C12.2618 5.51219 11.2499 4.15009 9.53253 3.2619C7.87364 2.40395 5.60948 2.01415 2.69772 2.00002L2.69286 3.00001ZM11.7 7.5H10.7V21H11.7H12.7V7.5H11.7Z"/></clipPath><radialGradient id="paint0_radial_1_1592" cx="0" cy="0" r="1" gradientUnits="userSpaceOnUse" gradientTransform="translate(11.7 12) scale(9.7 15.7907)">
<stop stop-color="#FFF8E4"/>
<stop offset="1" stop-color="#A85812"/>
</radialGradient>
<linearGradient id="paint1_diamond_1_1592" x1="0" y1="0" x2="500" y2="500" gradientUnits="userSpaceOnUse">
<stop stop-color="#FFBB00"/>
<stop offset="1" stop-color="#772C2C"/>
</linearGradient>
</defs>
</svg>
