<svg width="24" height="24" viewBox="0 0 24 24" fill="none" xmlns="http://www.w3.org/2000/svg">
<g clip-path="url(#clip0_1_5250)">
<path d="M6.20117 10H16.2012" stroke="#4F4F4F" stroke-width="2" stroke-linecap="round" stroke-linejoin="round"/>
<path d="M8.20117 14H13.2012" stroke="#4F4F4F" stroke-width="2" stroke-linecap="round" stroke-linejoin="round"/>
<path d="M11.6015 3C12.6464 3.00065 13.6683 3.30788 14.5403 3.88362C15.4124 4.45936 16.0963 5.27831 16.5075 6.239C17.2035 6.31747 17.8772 6.53225 18.4902 6.87109C19.1032 7.20993 19.6435 7.6662 20.0801 8.21383C20.5168 8.76146 20.8413 9.38974 21.0352 10.0628C21.229 10.7358 21.2884 11.4405 21.21 12.1365C21.1315 12.8325 20.9167 13.5062 20.5779 14.1192C20.239 14.7322 19.7828 15.2725 19.2351 15.7092C18.6875 16.1458 18.0592 16.4704 17.3862 16.6642C16.7131 16.8581 16.0085 16.9175 15.3125 16.839C14.8059 17.735 13.9921 18.4173 13.0215 18.7598C12.0509 19.1022 10.9891 19.0817 10.0325 18.702L6.20147 21V17.866C5.81012 17.7755 5.44424 17.5978 5.13115 17.3462C4.81805 17.0946 4.56582 16.7755 4.39325 16.4128C4.22069 16.0501 4.13225 15.653 4.13454 15.2514C4.13683 14.8497 4.22978 14.4537 4.40647 14.093C3.45172 13.5438 2.71492 12.6829 2.31967 11.6548C1.92443 10.6267 1.8948 9.49389 2.23575 8.44653C2.57671 7.39917 3.2675 6.50093 4.19223 5.90252C5.11695 5.30411 6.21935 5.04194 7.31447 5.16C7.81032 4.48976 8.45649 3.94519 9.20103 3.57005C9.94558 3.19491 10.7678 2.99967 11.6015 3Z" stroke="#4F4F4F" stroke-width="2" stroke-linecap="round" stroke-linejoin="round"/>
</g>
<defs>
<clipPath id="clip0_1_5250">
<rect width="24" height="24" fill="white"/>
</clipPath>
</defs>
</svg>
