<svg width="24" height="24" viewBox="0 0 24 24" fill="none" xmlns="http://www.w3.org/2000/svg">
<g clip-path="url(#clip0_1_796)">
<path d="M20 11.0002C19.7554 9.24041 18.9391 7.60985 17.6766 6.35969C16.4142 5.10953 14.7758 4.30911 13.0137 4.08175C11.2516 3.85438 9.46362 4.21268 7.9252 5.10144C6.38678 5.9902 5.18325 7.36013 4.5 9.00019M4 5.00019V9.00019H8" stroke="url(#paint0_radial_1_796)" stroke-width="1.6" stroke-linecap="round" stroke-linejoin="round"/>
<path d="M4 13C4.24456 14.7598 5.06093 16.3903 6.32336 17.6405C7.58579 18.8907 9.22424 19.6911 10.9863 19.9184C12.7484 20.1458 14.5364 19.7875 16.0748 18.8988C17.6132 18.01 18.8168 16.6401 19.5 15M20 19V15H16" stroke="url(#paint1_radial_1_796)" stroke-width="1.6" stroke-linecap="round" stroke-linejoin="round"/>
</g>
<defs>
<radialGradient id="paint0_radial_1_796" cx="0" cy="0" r="1" gradientUnits="userSpaceOnUse" gradientTransform="translate(12 7.50767) scale(8 6.13266)">
<stop stop-color="#FF7700"/>
<stop offset="1" stop-color="#251010"/>
</radialGradient>
<radialGradient id="paint1_radial_1_796" cx="0" cy="0" r="1" gradientUnits="userSpaceOnUse" gradientTransform="translate(12 16.4925) scale(8 7.01966)">
<stop stop-color="#FF7700"/>
<stop offset="1" stop-color="#251010"/>
</radialGradient>
<clipPath id="clip0_1_796">
<rect width="24" height="24" fill="white"/>
</clipPath>
</defs>
</svg>
