<svg width="24" height="24" viewBox="0 0 24 24" fill="none" xmlns="http://www.w3.org/2000/svg">
<g clip-path="url(#paint0_diamond_1_963_clip_path)" data-figma-skip-parse="true"><g transform="matrix(0.0118555 0 0 0.00715109 11.8555 7.15109)"><rect x="0" y="0" width="1084.35" height="1139.84" fill="url(#paint0_diamond_1_963)" opacity="1" shape-rendering="crispEdges"/><rect x="0" y="0" width="1084.35" height="1139.84" transform="scale(1 -1)" fill="url(#paint0_diamond_1_963)" opacity="1" shape-rendering="crispEdges"/><rect x="0" y="0" width="1084.35" height="1139.84" transform="scale(-1 1)" fill="url(#paint0_diamond_1_963)" opacity="1" shape-rendering="crispEdges"/><rect x="0" y="0" width="1084.35" height="1139.84" transform="scale(-1)" fill="url(#paint0_diamond_1_963)" opacity="1" shape-rendering="crispEdges"/></g></g><path d="M22.4704 0.0662454L0.78976 7.41101C0.347566 7.56082 0.0378835 7.96033 0.0032244 8.42572C-0.0314347 8.89111 0.215676 9.33209 0.630809 9.5456L9.76165 14.243L9.79212 14.3022L16.8909 8.73084L23.711 0.405774C23.4101 0.0707408 22.9276 -0.104332 22.4704 0.0662454Z" data-figma-gradient-fill="{&#34;type&#34;:&#34;GRADIENT_DIAMOND&#34;,&#34;stops&#34;:[{&#34;color&#34;:{&#34;r&#34;:1.0,&#34;g&#34;:0.73333334922790527,&#34;b&#34;:0.0,&#34;a&#34;:1.0},&#34;position&#34;:0.0},{&#34;color&#34;:{&#34;r&#34;:0.46634614467620850,&#34;g&#34;:0.17263776063919067,&#34;b&#34;:0.17263776063919067,&#34;a&#34;:1.0},&#34;position&#34;:1.0}],&#34;stopsVar&#34;:[{&#34;color&#34;:{&#34;r&#34;:1.0,&#34;g&#34;:0.73333334922790527,&#34;b&#34;:0.0,&#34;a&#34;:1.0},&#34;position&#34;:0.0},{&#34;color&#34;:{&#34;r&#34;:0.46634614467620850,&#34;g&#34;:0.17263776063919067,&#34;b&#34;:0.17263776063919067,&#34;a&#34;:1.0},&#34;position&#34;:1.0}],&#34;transform&#34;:{&#34;m00&#34;:23.710960388183594,&#34;m01&#34;:0.0,&#34;m02&#34;:0.0,&#34;m10&#34;:0.0,&#34;m11&#34;:14.302170753479004,&#34;m12&#34;:0.0},&#34;opacity&#34;:1.0,&#34;blendMode&#34;:&#34;NORMAL&#34;,&#34;visible&#34;:true}"/>
<g clip-path="url(#paint1_diamond_1_963_clip_path)" data-figma-skip-parse="true"><g transform="matrix(0.00710389 0 0 0.0117971 16.8961 12.2029)"><rect x="0" y="0" width="1140.77" height="1084.77" fill="url(#paint1_diamond_1_963)" opacity="1" shape-rendering="crispEdges"/><rect x="0" y="0" width="1140.77" height="1084.77" transform="scale(1 -1)" fill="url(#paint1_diamond_1_963)" opacity="1" shape-rendering="crispEdges"/><rect x="0" y="0" width="1140.77" height="1084.77" transform="scale(-1 1)" fill="url(#paint1_diamond_1_963)" opacity="1" shape-rendering="crispEdges"/><rect x="0" y="0" width="1140.77" height="1084.77" transform="scale(-1)" fill="url(#paint1_diamond_1_963)" opacity="1" shape-rendering="crispEdges"/></g></g><path d="M23.7111 0.405762L9.79224 14.3022L14.4615 23.3695C14.6619 23.7587 15.0623 24 15.4953 24C15.5241 24 15.553 23.9989 15.582 23.9967C16.0475 23.9621 16.4473 23.6526 16.5972 23.2106L23.9455 1.54021C24.0804 1.10319 23.951 0.67306 23.7111 0.405762Z" data-figma-gradient-fill="{&#34;type&#34;:&#34;GRADIENT_DIAMOND&#34;,&#34;stops&#34;:[{&#34;color&#34;:{&#34;r&#34;:1.0,&#34;g&#34;:0.73333334922790527,&#34;b&#34;:0.0,&#34;a&#34;:1.0},&#34;position&#34;:0.0},{&#34;color&#34;:{&#34;r&#34;:0.46634614467620850,&#34;g&#34;:0.17263776063919067,&#34;b&#34;:0.17263776063919067,&#34;a&#34;:1.0},&#34;position&#34;:1.0}],&#34;stopsVar&#34;:[{&#34;color&#34;:{&#34;r&#34;:1.0,&#34;g&#34;:0.73333334922790527,&#34;b&#34;:0.0,&#34;a&#34;:1.0},&#34;position&#34;:0.0},{&#34;color&#34;:{&#34;r&#34;:0.46634614467620850,&#34;g&#34;:0.17263776063919067,&#34;b&#34;:0.17263776063919067,&#34;a&#34;:1.0},&#34;position&#34;:1.0}],&#34;transform&#34;:{&#34;m00&#34;:14.207782745361328,&#34;m01&#34;:0.0,&#34;m02&#34;:9.7922363281250,&#34;m10&#34;:0.0,&#34;m11&#34;:23.594224929809570,&#34;m12&#34;:0.405761718750},&#34;opacity&#34;:1.0,&#34;blendMode&#34;:&#34;NORMAL&#34;,&#34;visible&#34;:true}"/>
<defs>
<clipPath id="paint0_diamond_1_963_clip_path"><path d="M22.4704 0.0662454L0.78976 7.41101C0.347566 7.56082 0.0378835 7.96033 0.0032244 8.42572C-0.0314347 8.89111 0.215676 9.33209 0.630809 9.5456L9.76165 14.243L9.79212 14.3022L16.8909 8.73084L23.711 0.405774C23.4101 0.0707408 22.9276 -0.104332 22.4704 0.0662454Z"/></clipPath><clipPath id="paint1_diamond_1_963_clip_path"><path d="M23.7111 0.405762L9.79224 14.3022L14.4615 23.3695C14.6619 23.7587 15.0623 24 15.4953 24C15.5241 24 15.553 23.9989 15.582 23.9967C16.0475 23.9621 16.4473 23.6526 16.5972 23.2106L23.9455 1.54021C24.0804 1.10319 23.951 0.67306 23.7111 0.405762Z"/></clipPath><linearGradient id="paint0_diamond_1_963" x1="0" y1="0" x2="500" y2="500" gradientUnits="userSpaceOnUse">
<stop stop-color="#FFBB00"/>
<stop offset="1" stop-color="#772C2C"/>
</linearGradient>
<linearGradient id="paint1_diamond_1_963" x1="0" y1="0" x2="500" y2="500" gradientUnits="userSpaceOnUse">
<stop stop-color="#FFBB00"/>
<stop offset="1" stop-color="#772C2C"/>
</linearGradient>
</defs>
</svg>
