<svg width="24" height="24" viewBox="0 0 24 24" fill="none" xmlns="http://www.w3.org/2000/svg">
<g clip-path="url(#clip0_1_2028)">
<path d="M5 21V5C5 4.46957 5.21071 3.96086 5.58579 3.58579C5.96086 3.21071 6.46957 3 7 3H17C17.5304 3 18.0391 3.21071 18.4142 3.58579C18.7893 3.96086 19 4.46957 19 5V21L16 19L14 21L12 19L10 21L8 19L5 21Z" stroke="#1E1E1E" stroke-width="2" stroke-linecap="round" stroke-linejoin="round"/>
<path d="M14.8 8.00016C14.6188 7.68592 14.3557 7.42686 14.0386 7.25071C13.7215 7.07456 13.3625 6.98795 13 7.00016H11C10.4696 7.00016 9.96086 7.21087 9.58579 7.58594C9.21071 7.96102 9 8.46972 9 9.00016C9 9.53059 9.21071 10.0393 9.58579 10.4144C9.96086 10.7894 10.4696 11.0002 11 11.0002H13C13.5304 11.0002 14.0391 11.2109 14.4142 11.5859C14.7893 11.961 15 12.4697 15 13.0002C15 13.5306 14.7893 14.0393 14.4142 14.4144C14.0391 14.7894 13.5304 15.0002 13 15.0002H11C10.6375 15.0124 10.2785 14.9258 9.96142 14.7496C9.64435 14.5735 9.38115 14.3144 9.2 14.0002" stroke="#1E1E1E" stroke-width="2" stroke-linecap="round" stroke-linejoin="round"/>
<path d="M12 6V16" stroke="#1E1E1E" stroke-width="2" stroke-linecap="round" stroke-linejoin="round"/>
</g>
<defs>
<clipPath id="clip0_1_2028">
<rect width="24" height="24" fill="white"/>
</clipPath>
</defs>
</svg>
