<svg width="24" height="24" viewBox="0 0 24 24" fill="none" xmlns="http://www.w3.org/2000/svg">
<g clip-path="url(#clip0_1_967)">
<g clip-path="url(#paint0_diamond_1_967_clip_path)" data-figma-skip-parse="true"><g transform="matrix(0.003 0 0 0.0055 12 7.5)"><rect x="0" y="0" width="1666.67" height="1363.64" fill="url(#paint0_diamond_1_967)" opacity="1" shape-rendering="crispEdges"/><rect x="0" y="0" width="1666.67" height="1363.64" transform="scale(1 -1)" fill="url(#paint0_diamond_1_967)" opacity="1" shape-rendering="crispEdges"/><rect x="0" y="0" width="1666.67" height="1363.64" transform="scale(-1 1)" fill="url(#paint0_diamond_1_967)" opacity="1" shape-rendering="crispEdges"/><rect x="0" y="0" width="1666.67" height="1363.64" transform="scale(-1)" fill="url(#paint0_diamond_1_967)" opacity="1" shape-rendering="crispEdges"/></g></g><path d="M12 2V1V2ZM9 5H10C10 4.46957 10.2107 3.96086 10.5858 3.58579L9.87868 2.87868L9.17157 2.17157C8.42143 2.92172 8 3.93913 8 5H9ZM9.87868 2.87868L10.5858 3.58579C10.9609 3.21071 11.4696 3 12 3V2V1C10.9391 1 9.92172 1.42143 9.17157 2.17157L9.87868 2.87868ZM12 2V3C12.5304 3 13.0391 3.21071 13.4142 3.58579L14.1213 2.87868L14.8284 2.17157C14.0783 1.42143 13.0609 1 12 1V2ZM14.1213 2.87868L13.4142 3.58579C13.7893 3.96086 14 4.46957 14 5H15H16C16 3.93913 15.5786 2.92172 14.8284 2.17157L14.1213 2.87868ZM15 5H14V10H15H16V5H15ZM15 10H14C14 10.5304 13.7893 11.0391 13.4142 11.4142L14.1213 12.1213L14.8284 12.8284C15.5786 12.0783 16 11.0609 16 10H15ZM14.1213 12.1213L13.4142 11.4142C13.0391 11.7893 12.5304 12 12 12V13V14C13.0609 14 14.0783 13.5786 14.8284 12.8284L14.1213 12.1213ZM12 13V12C11.4696 12 10.9609 11.7893 10.5858 11.4142L9.87868 12.1213L9.17157 12.8284C9.92172 13.5786 10.9391 14 12 14V13ZM9.87868 12.1213L10.5858 11.4142C10.2107 11.0391 10 10.5304 10 10H9H8C8 11.0609 8.42143 12.0783 9.17157 12.8284L9.87868 12.1213ZM9 10H10V5H9H8V10H9Z" data-figma-gradient-fill="{&#34;type&#34;:&#34;GRADIENT_DIAMOND&#34;,&#34;stops&#34;:[{&#34;color&#34;:{&#34;r&#34;:1.0,&#34;g&#34;:0.73333334922790527,&#34;b&#34;:0.0,&#34;a&#34;:1.0},&#34;position&#34;:0.0},{&#34;color&#34;:{&#34;r&#34;:0.46634614467620850,&#34;g&#34;:0.17263776063919067,&#34;b&#34;:0.17263776063919067,&#34;a&#34;:1.0},&#34;position&#34;:1.0}],&#34;stopsVar&#34;:[{&#34;color&#34;:{&#34;r&#34;:1.0,&#34;g&#34;:0.73333334922790527,&#34;b&#34;:0.0,&#34;a&#34;:1.0},&#34;position&#34;:0.0},{&#34;color&#34;:{&#34;r&#34;:0.46634614467620850,&#34;g&#34;:0.17263776063919067,&#34;b&#34;:0.17263776063919067,&#34;a&#34;:1.0},&#34;position&#34;:1.0}],&#34;transform&#34;:{&#34;m00&#34;:6.0,&#34;m01&#34;:0.0,&#34;m02&#34;:9.0,&#34;m10&#34;:0.0,&#34;m11&#34;:11.0,&#34;m12&#34;:2.0},&#34;opacity&#34;:1.0,&#34;blendMode&#34;:&#34;NORMAL&#34;,&#34;visible&#34;:true}"/>
<g clip-path="url(#paint1_diamond_1_967_clip_path)" data-figma-skip-parse="true"><g transform="matrix(0.007 0 0 0.0035 12 13.5)"><rect x="0" y="0" width="1285.71" height="1571.43" fill="url(#paint1_diamond_1_967)" opacity="1" shape-rendering="crispEdges"/><rect x="0" y="0" width="1285.71" height="1571.43" transform="scale(1 -1)" fill="url(#paint1_diamond_1_967)" opacity="1" shape-rendering="crispEdges"/><rect x="0" y="0" width="1285.71" height="1571.43" transform="scale(-1 1)" fill="url(#paint1_diamond_1_967)" opacity="1" shape-rendering="crispEdges"/><rect x="0" y="0" width="1285.71" height="1571.43" transform="scale(-1)" fill="url(#paint1_diamond_1_967)" opacity="1" shape-rendering="crispEdges"/></g></g><path d="M6 10C6 9.44772 5.55228 9 5 9C4.44772 9 4 9.44772 4 10L5 10L6 10ZM12 17V16V17ZM20 10C20 9.44772 19.5523 9 19 9C18.4477 9 18 9.44772 18 10L19 10L20 10ZM5 10L4 10C4 12.1217 4.84285 14.1566 6.34315 15.6569L7.05025 14.9497L7.75736 14.2426C6.63214 13.1174 6 11.5913 6 10L5 10ZM7.05025 14.9497L6.34315 15.6569C7.84344 17.1571 9.87827 18 12 18V17V16C10.4087 16 8.88258 15.3679 7.75736 14.2426L7.05025 14.9497ZM12 17V18C14.1217 18 16.1566 17.1571 17.6569 15.6569L16.9497 14.9497L16.2426 14.2426C15.1174 15.3679 13.5913 16 12 16V17ZM16.9497 14.9497L17.6569 15.6569C19.1571 14.1566 20 12.1217 20 10L19 10L18 10C18 11.5913 17.3679 13.1174 16.2426 14.2426L16.9497 14.9497Z" data-figma-gradient-fill="{&#34;type&#34;:&#34;GRADIENT_DIAMOND&#34;,&#34;stops&#34;:[{&#34;color&#34;:{&#34;r&#34;:1.0,&#34;g&#34;:0.73333334922790527,&#34;b&#34;:0.0,&#34;a&#34;:1.0},&#34;position&#34;:0.0},{&#34;color&#34;:{&#34;r&#34;:0.46634614467620850,&#34;g&#34;:0.17263776063919067,&#34;b&#34;:0.17263776063919067,&#34;a&#34;:1.0},&#34;position&#34;:1.0}],&#34;stopsVar&#34;:[{&#34;color&#34;:{&#34;r&#34;:1.0,&#34;g&#34;:0.73333334922790527,&#34;b&#34;:0.0,&#34;a&#34;:1.0},&#34;position&#34;:0.0},{&#34;color&#34;:{&#34;r&#34;:0.46634614467620850,&#34;g&#34;:0.17263776063919067,&#34;b&#34;:0.17263776063919067,&#34;a&#34;:1.0},&#34;position&#34;:1.0}],&#34;transform&#34;:{&#34;m00&#34;:14.0,&#34;m01&#34;:0.0,&#34;m02&#34;:5.0,&#34;m10&#34;:0.0,&#34;m11&#34;:7.0,&#34;m12&#34;:10.0},&#34;opacity&#34;:1.0,&#34;blendMode&#34;:&#34;NORMAL&#34;,&#34;visible&#34;:true}"/>
<g clip-path="url(#paint2_diamond_1_967_clip_path)" data-figma-skip-parse="true"><g transform="matrix(0.004 0 0 0.0005 12 21.5)"><rect x="0" y="0" width="0" height="inf" fill="url(#paint2_diamond_1_967)" opacity="1" shape-rendering="crispEdges"/><rect x="0" y="0" width="0" height="inf" transform="scale(1 -1)" fill="url(#paint2_diamond_1_967)" opacity="1" shape-rendering="crispEdges"/><rect x="0" y="0" width="0" height="inf" transform="scale(-1 1)" fill="url(#paint2_diamond_1_967)" opacity="1" shape-rendering="crispEdges"/><rect x="0" y="0" width="0" height="inf" transform="scale(-1)" fill="url(#paint2_diamond_1_967)" opacity="1" shape-rendering="crispEdges"/></g></g><path d="M8 20C7.44772 20 7 20.4477 7 21C7 21.5523 7.44772 22 8 22V21V20ZM16 22C16.5523 22 17 21.5523 17 21C17 20.4477 16.5523 20 16 20V21V22ZM8 21V22H16V21V20H8V21Z" data-figma-gradient-fill="{&#34;type&#34;:&#34;GRADIENT_DIAMOND&#34;,&#34;stops&#34;:[{&#34;color&#34;:{&#34;r&#34;:1.0,&#34;g&#34;:0.73333334922790527,&#34;b&#34;:0.0,&#34;a&#34;:1.0},&#34;position&#34;:0.0},{&#34;color&#34;:{&#34;r&#34;:0.46634614467620850,&#34;g&#34;:0.17263776063919067,&#34;b&#34;:0.17263776063919067,&#34;a&#34;:1.0},&#34;position&#34;:1.0}],&#34;stopsVar&#34;:[{&#34;color&#34;:{&#34;r&#34;:1.0,&#34;g&#34;:0.73333334922790527,&#34;b&#34;:0.0,&#34;a&#34;:1.0},&#34;position&#34;:0.0},{&#34;color&#34;:{&#34;r&#34;:0.46634614467620850,&#34;g&#34;:0.17263776063919067,&#34;b&#34;:0.17263776063919067,&#34;a&#34;:1.0},&#34;position&#34;:1.0}],&#34;transform&#34;:{&#34;m00&#34;:8.0,&#34;m01&#34;:0.0,&#34;m02&#34;:8.0,&#34;m10&#34;:0.0,&#34;m11&#34;:1.0,&#34;m12&#34;:21.0},&#34;opacity&#34;:1.0,&#34;blendMode&#34;:&#34;NORMAL&#34;,&#34;visible&#34;:true}"/>
<g clip-path="url(#paint3_diamond_1_967_clip_path)" data-figma-skip-parse="true"><g transform="matrix(0.0005 0 0 0.002 12.5 19)"><rect x="0" y="0" width="inf" height="0" fill="url(#paint3_diamond_1_967)" opacity="1" shape-rendering="crispEdges"/><rect x="0" y="0" width="inf" height="0" transform="scale(1 -1)" fill="url(#paint3_diamond_1_967)" opacity="1" shape-rendering="crispEdges"/><rect x="0" y="0" width="inf" height="0" transform="scale(-1 1)" fill="url(#paint3_diamond_1_967)" opacity="1" shape-rendering="crispEdges"/><rect x="0" y="0" width="inf" height="0" transform="scale(-1)" fill="url(#paint3_diamond_1_967)" opacity="1" shape-rendering="crispEdges"/></g></g><path d="M13 17C13 16.4477 12.5523 16 12 16C11.4477 16 11 16.4477 11 17H12H13ZM11 21C11 21.5523 11.4477 22 12 22C12.5523 22 13 21.5523 13 21H12H11ZM12 17H11V21H12H13V17H12Z" data-figma-gradient-fill="{&#34;type&#34;:&#34;GRADIENT_DIAMOND&#34;,&#34;stops&#34;:[{&#34;color&#34;:{&#34;r&#34;:1.0,&#34;g&#34;:0.73333334922790527,&#34;b&#34;:0.0,&#34;a&#34;:1.0},&#34;position&#34;:0.0},{&#34;color&#34;:{&#34;r&#34;:0.46634614467620850,&#34;g&#34;:0.17263776063919067,&#34;b&#34;:0.17263776063919067,&#34;a&#34;:1.0},&#34;position&#34;:1.0}],&#34;stopsVar&#34;:[{&#34;color&#34;:{&#34;r&#34;:1.0,&#34;g&#34;:0.73333334922790527,&#34;b&#34;:0.0,&#34;a&#34;:1.0},&#34;position&#34;:0.0},{&#34;color&#34;:{&#34;r&#34;:0.46634614467620850,&#34;g&#34;:0.17263776063919067,&#34;b&#34;:0.17263776063919067,&#34;a&#34;:1.0},&#34;position&#34;:1.0}],&#34;transform&#34;:{&#34;m00&#34;:1.0,&#34;m01&#34;:0.0,&#34;m02&#34;:12.0,&#34;m10&#34;:0.0,&#34;m11&#34;:4.0,&#34;m12&#34;:17.0},&#34;opacity&#34;:1.0,&#34;blendMode&#34;:&#34;NORMAL&#34;,&#34;visible&#34;:true}"/>
</g>
<defs>
<clipPath id="paint0_diamond_1_967_clip_path"><path d="M12 2V1V2ZM9 5H10C10 4.46957 10.2107 3.96086 10.5858 3.58579L9.87868 2.87868L9.17157 2.17157C8.42143 2.92172 8 3.93913 8 5H9ZM9.87868 2.87868L10.5858 3.58579C10.9609 3.21071 11.4696 3 12 3V2V1C10.9391 1 9.92172 1.42143 9.17157 2.17157L9.87868 2.87868ZM12 2V3C12.5304 3 13.0391 3.21071 13.4142 3.58579L14.1213 2.87868L14.8284 2.17157C14.0783 1.42143 13.0609 1 12 1V2ZM14.1213 2.87868L13.4142 3.58579C13.7893 3.96086 14 4.46957 14 5H15H16C16 3.93913 15.5786 2.92172 14.8284 2.17157L14.1213 2.87868ZM15 5H14V10H15H16V5H15ZM15 10H14C14 10.5304 13.7893 11.0391 13.4142 11.4142L14.1213 12.1213L14.8284 12.8284C15.5786 12.0783 16 11.0609 16 10H15ZM14.1213 12.1213L13.4142 11.4142C13.0391 11.7893 12.5304 12 12 12V13V14C13.0609 14 14.0783 13.5786 14.8284 12.8284L14.1213 12.1213ZM12 13V12C11.4696 12 10.9609 11.7893 10.5858 11.4142L9.87868 12.1213L9.17157 12.8284C9.92172 13.5786 10.9391 14 12 14V13ZM9.87868 12.1213L10.5858 11.4142C10.2107 11.0391 10 10.5304 10 10H9H8C8 11.0609 8.42143 12.0783 9.17157 12.8284L9.87868 12.1213ZM9 10H10V5H9H8V10H9Z"/></clipPath><clipPath id="paint1_diamond_1_967_clip_path"><path d="M6 10C6 9.44772 5.55228 9 5 9C4.44772 9 4 9.44772 4 10L5 10L6 10ZM12 17V16V17ZM20 10C20 9.44772 19.5523 9 19 9C18.4477 9 18 9.44772 18 10L19 10L20 10ZM5 10L4 10C4 12.1217 4.84285 14.1566 6.34315 15.6569L7.05025 14.9497L7.75736 14.2426C6.63214 13.1174 6 11.5913 6 10L5 10ZM7.05025 14.9497L6.34315 15.6569C7.84344 17.1571 9.87827 18 12 18V17V16C10.4087 16 8.88258 15.3679 7.75736 14.2426L7.05025 14.9497ZM12 17V18C14.1217 18 16.1566 17.1571 17.6569 15.6569L16.9497 14.9497L16.2426 14.2426C15.1174 15.3679 13.5913 16 12 16V17ZM16.9497 14.9497L17.6569 15.6569C19.1571 14.1566 20 12.1217 20 10L19 10L18 10C18 11.5913 17.3679 13.1174 16.2426 14.2426L16.9497 14.9497Z"/></clipPath><clipPath id="paint2_diamond_1_967_clip_path"><path d="M8 20C7.44772 20 7 20.4477 7 21C7 21.5523 7.44772 22 8 22V21V20ZM16 22C16.5523 22 17 21.5523 17 21C17 20.4477 16.5523 20 16 20V21V22ZM8 21V22H16V21V20H8V21Z"/></clipPath><clipPath id="paint3_diamond_1_967_clip_path"><path d="M13 17C13 16.4477 12.5523 16 12 16C11.4477 16 11 16.4477 11 17H12H13ZM11 21C11 21.5523 11.4477 22 12 22C12.5523 22 13 21.5523 13 21H12H11ZM12 17H11V21H12H13V17H12Z"/></clipPath><linearGradient id="paint0_diamond_1_967" x1="0" y1="0" x2="500" y2="500" gradientUnits="userSpaceOnUse">
<stop stop-color="#FFBB00"/>
<stop offset="1" stop-color="#772C2C"/>
</linearGradient>
<linearGradient id="paint1_diamond_1_967" x1="0" y1="0" x2="500" y2="500" gradientUnits="userSpaceOnUse">
<stop stop-color="#FFBB00"/>
<stop offset="1" stop-color="#772C2C"/>
</linearGradient>
<linearGradient id="paint2_diamond_1_967" x1="0" y1="0" x2="500" y2="500" gradientUnits="userSpaceOnUse">
<stop stop-color="#FFBB00"/>
<stop offset="1" stop-color="#772C2C"/>
</linearGradient>
<linearGradient id="paint3_diamond_1_967" x1="0" y1="0" x2="500" y2="500" gradientUnits="userSpaceOnUse">
<stop stop-color="#FFBB00"/>
<stop offset="1" stop-color="#772C2C"/>
</linearGradient>
<clipPath id="clip0_1_967">
<rect width="24" height="24" fill="white"/>
</clipPath>
</defs>
</svg>
